<svg width="54" height="49" viewBox="0 0 54 49" fill="none" xmlns="http://www.w3.org/2000/svg">
<path d="M51.6646 8.85295L35.7528 0.897054C35.3843 0.712688 34.978 0.616699 34.566 0.616699C34.154 0.616699 33.7477 0.712688 33.3793 0.897054L18.6556 8.26156L3.92919 0.897054C3.52478 0.694967 3.07541 0.599623 2.62378 0.620077C2.17214 0.640532 1.73324 0.776106 1.34875 1.01392C0.964254 1.25174 0.646943 1.5839 0.42695 1.97886C0.206957 2.37382 0.0915864 2.81847 0.0917972 3.27056V37.7461C0.0917972 38.7512 0.659318 39.6688 1.55833 40.1196L17.4701 48.0755C17.8386 48.2599 18.2449 48.3559 18.6569 48.3559C19.0689 48.3559 19.4752 48.2599 19.8436 48.0755L34.5673 40.711L49.2937 48.0728C49.697 48.2769 50.146 48.3735 50.5975 48.3536C51.049 48.3336 51.4877 48.1976 51.8714 47.9588C52.6537 47.4735 53.1311 46.6222 53.1311 45.702V11.2265C53.1311 10.2214 52.5636 9.30378 51.6646 8.85295ZM21.3075 12.8654L31.9154 7.56144V36.1072L21.3075 41.4111V12.8654ZM5.39573 7.56144L16.0036 12.8654V41.4111L5.39573 36.1072V7.56144ZM47.8272 41.4111L37.2193 36.1072V7.56144L47.8272 12.8654V41.4111Z" fill="#5C97CD"/>
</svg>
