<?xml version="1.0" encoding="UTF-8"?>
<svg width="49px" height="44px" viewBox="0 0 49 44" xmlns="http://www.w3.org/2000/svg" xmlns:xlink="http://www.w3.org/1999/xlink" version="1.1">
 <!-- Generated by Pixelmator Pro 1.8 -->
 <path id="Path" d="M47 43 L47 18.653 C42.631 11.813 35.74 7.162 30.235 4.468 28.399 6.565 26.223 9.339 24.007 12.614 29.41 20.59 35.054 31.558 36.567 43 Z" fill="#8cc8d1" fill-opacity="1" stroke="none"/>
 <path id="Path-1" d="M24.007 12.614 C18.606 20.597 12.973 31.563 11.472 43 L36.567 43 C35.054 31.558 29.41 20.59 24.007 12.614 Z" fill="#ffffff" fill-opacity="1" stroke="none"/>
 <path id="Path-2" d="M24 2 C22.441 2.44 20.245 3.255 17.768 4.466 19.604 6.56 21.785 9.334 24.007 12.614 26.223 9.339 28.399 6.565 30.235 4.468 27.757 3.256 25.56 2.44 24 2 Z" fill="#f57c54" fill-opacity="1" stroke="none"/>
 <path id="Path-3" d="M1 18.653 L1 43 11.472 43 C12.973 31.563 18.606 20.597 24.007 12.614 21.785 9.334 19.604 6.56 17.768 4.466 12.263 7.16 5.37 11.811 1 18.653 Z" fill="#6b3e74" fill-opacity="1" stroke="none"/>
 <path id="Path-4" d="M24.007 12.614 C18.606 20.597 12.973 31.563 11.472 43 M24.007 12.614 C29.41 20.59 35.054 31.558 36.567 43 M24.007 12.614 C21.785 9.334 19.604 6.56 17.768 4.466 M24.007 12.614 C26.223 9.339 28.399 6.565 30.235 4.468 M11.472 43 L1 43 1 18.653 C5.37 11.811 12.263 7.16 17.768 4.466 M11.472 43 L36.567 43 M36.567 43 L47 43 47 18.653 C42.631 11.813 35.74 7.162 30.235 4.468 M17.768 4.466 C20.245 3.255 22.44 2.44 24 2 25.56 2.44 27.757 3.256 30.235 4.468" fill="none" stroke="#30242a" stroke-width="3" stroke-opacity="1" stroke-linejoin="round"/>
</svg>
