<svg width="84" height="84" viewBox="0 0 84 84" fill="none" xmlns="http://www.w3.org/2000/svg">
<path d="M3.81295 17.8245H38.1757C38.5817 17.8245 38.909 18.1516 38.909 18.5578V44.6964C38.909 45.1025 38.5819 45.4298 38.1757 45.4298H3.81295C3.40689 45.4298 3.07959 45.1026 3.07959 44.6964V18.5577C3.07975 18.1516 3.40689 17.8245 3.81295 17.8245Z" fill="#FFE356"/>
<path d="M5.46021 17.8245H10.4013V23.1378L7.97594 20.8027L5.46021 23.1378V17.8245Z" fill="#FCD34E"/>
<path d="M43.7261 28.5077V63.8179H59.2152H76.8139V58.3013H81.7438V48.8026C81.7438 48.8026 77.9871 45.6325 72.4706 44.3464C72.4706 44.3464 66.0177 32.9636 63.784 31.091C63.784 31.091 60.8509 29.0944 43.7261 28.5077Z" fill="white"/>
<path d="M6.41889 52.909V55.8421H2.78638V63.8178H43.726V55.7292H35.863V52.875H6.40773L6.41889 52.909Z" fill="#6C7678"/>
<path d="M35.863 52.8751H42.2595V44.5157H0.67688V52.8751H6.40775H35.863Z" fill="#83CF8F"/>
<path d="M78.2578 63.8179C78.3142 63.4118 78.3367 63.0056 78.3367 62.5882C78.3367 57.3085 74.061 53.0217 68.7702 53.0217C63.4907 53.0217 59.2037 57.2974 59.2037 62.5882C59.2037 63.0056 59.2375 63.4118 59.2826 63.8179H78.2464H78.2578ZM25.5858 63.8179C25.6423 63.4118 25.6647 63.0056 25.6647 62.5882C25.6647 57.3085 21.3891 53.0217 16.0983 53.0217C10.8187 53.0217 6.54309 57.2974 6.54309 62.5882C6.54309 63.0056 6.57689 63.4118 6.622 63.8179H25.5858Z" fill="#596366"/>
<path d="M75.9903 62.5882C75.9903 66.5705 72.7638 69.8083 68.7702 69.8083C64.7879 69.8083 61.5502 66.5818 61.5502 62.5882C61.5502 58.6059 64.7766 55.3682 68.7702 55.3682C72.7527 55.3683 75.9903 58.5948 75.9903 62.5882Z" fill="#6C7678"/>
<path d="M23.1377 62.5883C23.1377 66.4803 19.9902 69.6277 16.0983 69.6277C12.2064 69.6277 9.05884 66.4801 9.05884 62.5883C9.05884 58.6964 12.2064 55.5488 16.0983 55.5488C19.9902 55.5488 23.1377 58.6962 23.1377 62.5883Z" fill="#6C7678"/>
<path d="M6.53176 64.2014H2.43676C1.7938 64.2014 1.26355 63.6711 1.26355 63.0282V59.0121C1.26355 58.3691 1.7938 57.8389 2.43676 57.8389H6.53192L6.53176 64.2014ZM72.3013 62.5882C72.3013 64.5399 70.7219 66.1191 68.7703 66.1191C66.8188 66.1191 65.2394 64.5397 65.2394 62.5882C65.2394 60.6366 66.8188 59.0572 68.7703 59.0572C70.7219 59.0572 72.3013 60.6365 72.3013 62.5882ZM19.979 62.5882C19.979 64.7316 18.2417 66.4689 16.0982 66.4689C13.9548 66.4689 12.2175 64.7316 12.2175 62.5882C12.2175 60.4447 13.9548 58.7074 16.0982 58.7074C18.2417 58.7074 19.979 60.4447 19.979 62.5882ZM45.2489 61.9452V58.8992V58.7752V30.888C45.2489 30.7413 45.3729 30.6173 45.5196 30.6173H45.5647C45.7114 30.6173 45.8354 30.7413 45.8354 30.888V58.0758C45.8692 58.0645 45.9143 58.0645 45.9483 58.0645H57.5905C57.9741 58.0645 58.2899 58.3803 58.2899 58.7639V58.8879C58.2899 59.2715 57.9741 59.5873 57.5905 59.5873H45.9483C45.9145 59.5873 45.8694 59.5873 45.8354 59.576V61.9337H59.2149V63.8063H43.7257V61.9337H45.2487V61.9452H45.2489ZM82.0596 64.427H76.5883V58.0756H82.0596C82.759 58.0756 83.323 58.6397 83.323 59.3391V63.1634C83.323 63.8629 82.759 64.427 82.0596 64.427ZM55.6841 48.1031H52.1305C51.8822 48.1031 51.6905 47.9 51.6905 47.6631V47.5842C51.6905 47.3359 51.8936 47.1441 52.1305 47.1441H55.6841C55.9323 47.1441 56.1241 47.3473 56.1241 47.5842V47.6631C56.1241 47.9113 55.921 48.1031 55.6841 48.1031Z" fill="#ECF0F1"/>
<path d="M2.83149 57.8389H2.75258C2.52699 57.8389 2.33521 57.6471 2.33521 57.4215V56.1467C2.33521 55.9212 2.52699 55.7294 2.75258 55.7294H2.83149C3.05708 55.7294 3.24887 55.9212 3.24887 56.1467V57.4215C3.24887 57.6471 3.05708 57.8389 2.83149 57.8389Z" fill="#FFE45E"/>
<path d="M63.1636 33.2909H65.6567C65.6567 33.2909 71.7598 42.3836 72.4705 44.3466H67.5293C67.2697 44.3466 67.0328 44.1999 66.9201 43.963L62.4753 34.3852C62.2384 33.8776 62.6107 33.3022 63.1747 33.3022L63.1636 33.2909ZM65.2393 43.4327L61.257 34.0016C61.0765 33.5729 60.6591 33.3022 60.1965 33.3022H52.954C52.4124 33.3022 51.9725 33.7422 51.9725 34.2836V43.3763C51.9725 43.9179 52.4125 44.3577 52.954 44.3577H64.63C65.1039 44.3577 65.4311 43.8726 65.2393 43.4327Z" fill="#8597B1"/>
<path d="M81.7325 51.5101C80.8526 51.6003 80.1531 52.3448 80.1531 53.2474V55.1426C80.1531 56.0451 80.8525 56.7896 81.7325 56.8799V51.4988V51.5101Z" fill="#FF7069"/>
<path d="M7.88556 38.7735C7.43439 38.3562 6.8139 38.153 6.00163 38.153H4.25305V43.2183H5.88875C6.73483 43.2183 7.38911 42.9927 7.85176 42.5302C8.31425 42.0791 8.55116 41.4246 8.55116 40.5785C8.55116 39.7889 8.32557 39.1909 7.88556 38.7735ZM34.5206 38.153H33.0314L34.7011 41.2779V43.2183H36.0774V41.2328L37.7471 38.1417H36.2692L35.4005 40.0257L34.5318 38.1417L34.5206 38.153ZM30.4932 41.3795L31.5649 43.2296H33.1217L31.6438 41.0186C32.2191 40.6914 32.5012 40.2401 32.5012 39.6536C32.5012 38.6495 31.8131 38.1532 30.4368 38.1532H28.7784V43.2185H30.1434V41.3683H30.4932V41.3795ZM30.1434 39.1909H30.4141C30.8766 39.1909 31.1135 39.3714 31.1135 39.7212C31.1135 40.1385 30.8766 40.353 30.3915 40.353H30.1319V39.1911L30.1434 39.1909ZM27.8872 42.1129H26.2515V41.1539H27.7745V40.0483H26.2515V39.2587H27.8872V38.153H24.8752V43.2183H27.8872V42.1015V42.1129ZM22.0999 40.7477C22.0661 40.883 22.021 41.0748 21.9759 41.3117C21.9308 41.56 21.897 41.7629 21.8743 41.9209C21.863 41.6953 21.7841 41.3004 21.6374 40.7251L20.9494 38.1529H19.4039L21.0622 43.2181H22.6755L24.3338 38.1529H22.7995L22.1001 40.7362V40.7477H22.0999ZM18.8623 43.2296V38.1644H17.486V43.2296H18.8623ZM16.6737 43.2296V42.124H14.722V38.1644H13.357V43.2296H16.6737ZM12.4659 42.1129H10.8302V41.1539H12.3531V40.0483H10.8302V39.2587H12.4659V38.153H9.45367V43.2183H12.4657V42.1015L12.4659 42.1129ZM6.83654 41.7404C6.64475 41.9773 6.34009 42.1014 5.92272 42.1014H5.61805V39.2585H6.01295C6.38521 39.2585 6.66723 39.3714 6.8477 39.597C7.02817 39.8225 7.12972 40.161 7.12972 40.6348C7.12972 41.1313 7.02833 41.5035 6.83654 41.7404Z" fill="white"/>
<path d="M20.9945 22.6979C21.8743 22.6979 22.7317 22.7768 23.5666 22.9348L23.6231 22.9461C23.7133 22.9687 23.8035 22.9799 23.8938 23.0025H23.9164L23.9728 23.0139C24.0518 23.0365 24.1308 23.0477 24.2098 23.0703L24.2662 23.0816C24.3677 23.1043 24.458 23.1267 24.5595 23.1605L24.616 23.1719C24.7062 23.1945 24.8078 23.2283 24.898 23.2508L24.9544 23.2734C25.0333 23.296 25.1011 23.3185 25.18 23.3412L25.2365 23.3638L25.2929 23.3864C25.3718 23.4091 25.4396 23.4316 25.5185 23.4654L25.5749 23.488H25.5862C25.6765 23.5218 25.7667 23.5558 25.8458 23.5782L25.9022 23.6009C25.9811 23.6347 26.0714 23.6686 26.1504 23.7024L26.1731 23.7138L26.2295 23.7364C26.2973 23.7702 26.3762 23.7928 26.4438 23.8266L26.5002 23.8493L26.5567 23.8719C26.6244 23.9057 26.692 23.9283 26.7598 23.9621L26.7711 23.9735L26.8275 23.9961C26.9178 24.0412 26.9967 24.075 27.0871 24.1201L27.1435 24.1428C31.6447 26.399 34.7358 31.0469 34.7358 36.4281V36.507H7.27637V36.4281C7.27637 30.5732 10.9428 25.5755 16.0983 23.6014L16.1661 23.5787C16.2339 23.5561 16.3128 23.5223 16.3804 23.4998L16.4593 23.4772H16.4706C16.9782 23.2967 17.5085 23.15 18.0387 23.0372L18.1176 23.0145C18.1965 23.0032 18.2756 22.9807 18.3545 22.9694L18.4334 22.9581C18.6365 22.9243 18.8508 22.8792 19.0539 22.8565C19.6857 22.7663 20.34 22.7212 20.9943 22.7212V22.6979H20.9945ZM19.0879 26.3304C18.6818 27.4134 18.3434 28.5641 18.0838 29.7599C17.3618 29.6922 16.6624 29.602 15.963 29.4892C16.8091 28.2594 17.8696 27.1765 19.0879 26.3304ZM14.4626 29.2071C13.4812 28.9928 12.5336 28.7332 11.6198 28.4286C13.4812 26.2513 16.0872 24.7283 19.0541 24.2658C19.2346 24.2996 19.415 24.3223 19.6068 24.3674C17.5085 25.5068 15.7374 27.1876 14.4738 29.2184L14.4626 29.2071ZM10.627 29.7486C11.5973 30.1096 12.6012 30.4367 13.6617 30.6963C12.9736 32.1966 12.5449 33.8438 12.432 35.581H8.68665C8.83316 33.4376 9.5214 31.4521 10.627 29.7486ZM15.0718 31.0008C15.9405 31.1699 16.843 31.3054 17.7567 31.3956C17.5311 32.7382 17.3957 34.137 17.3618 35.5697H13.8533C13.9662 33.934 14.3949 32.3884 15.083 30.9896L15.0718 31.0008ZM24.9541 35.581C24.9203 34.1258 24.7736 32.7157 24.548 31.3619C25.7439 31.2265 26.9171 31.0121 28.0339 30.7414C28.801 32.2079 29.2749 33.8436 29.3876 35.581H24.9428H24.9541ZM29.4327 30.3691C30.087 30.1773 30.7188 29.9631 31.3279 29.7262C32.4335 31.4296 33.1329 33.4264 33.2796 35.581H30.809C30.6963 33.7196 30.2112 31.9597 29.4327 30.3691ZM30.3465 28.4061C29.7825 28.5979 29.2071 28.767 28.6093 28.925C27.3909 27.0524 25.7213 25.5068 23.7696 24.4125C26.3755 25.0105 28.6657 26.4433 30.3465 28.4061ZM27.1427 29.2635C26.1951 29.4553 25.225 29.6133 24.2321 29.7147C23.9049 28.2481 23.4649 26.8605 22.9347 25.5632C24.6043 26.4657 26.0369 27.7292 27.1312 29.2635H27.1427ZM19.7308 29.8613C20.1369 29.8727 20.5544 29.884 20.9605 29.884C21.5132 29.884 22.0548 29.8727 22.5962 29.8389C22.2353 28.2256 21.7614 26.7026 21.1634 25.2925C20.5656 26.7026 20.0805 28.237 19.7307 29.8502L19.7308 29.8613ZM22.9122 31.4972C22.2692 31.5423 21.6261 31.5536 20.9605 31.5536C20.4416 31.5536 19.9226 31.5423 19.415 31.5198C19.2008 32.8284 19.0766 34.1823 19.0428 35.5697H23.2958C23.262 34.1709 23.1266 32.8058 22.9235 31.4972H22.9122Z" fill="white"/>
<path d="M29.8502 17.8245H34.7913V23.1378L32.3546 20.8027L29.8502 23.1378V17.8245Z" fill="#FCD34E"/>
</svg>
