<svg width="84" height="84" viewBox="0 0 84 84" fill="none" xmlns="http://www.w3.org/2000/svg">
<path d="M51.1882 52.3958C50.6596 57.812 44.2017 68.1386 44.2521 70.2968C44.3025 72.4551 46.4983 82.3192 46.4983 82.3192H33.0224L32.2298 70.1654C32.1448 68.857 28.2038 55.0056 34.9849 49.3206L38.4395 49.6873L40.2884 52.0659C44.3222 48.8404 46.4645 45.7277 43.0582 39.7857L40.9435 39.8805C38.965 37.6235 40.0749 36.9515 42.5582 36.4445C44.8122 35.984 46.4763 36.4465 47.6948 37.4901C48.8035 38.7609 51.6021 48.1338 51.186 52.395L51.1882 52.3958Z" fill="#FED298"/>
<path d="M70.8265 21.8489L46.8984 49.6803L33.885 38.4919L57.813 10.6597L70.8265 21.8489Z" fill="#83CF8F"/>
<path d="M56.5066 33.7397C54.5352 36.0323 51.0784 36.2942 48.7848 34.3218C46.4922 32.3495 46.2313 28.8927 48.2027 26.6001C50.1751 24.3065 53.6319 24.0456 55.9245 26.018C58.2171 27.9894 58.4781 31.4471 56.5066 33.7397ZM35.481 38.3714L46.777 48.0832L69.2267 21.9694L57.9306 12.2585L35.48 38.3724L35.481 38.3714Z" fill="#75BD80"/>
<path d="M65.1108 19.9229L60.573 16.0215C59.3763 17.4139 57.2783 17.5719 55.887 16.3752L39.2458 35.731C40.6373 36.9276 40.7962 39.0255 39.5996 40.4169L44.1374 44.3183C45.3331 42.9269 47.4309 42.7689 48.8233 43.9656L65.4643 24.61C64.0719 23.4133 63.9149 21.3155 65.1116 19.9231L65.1108 19.9229Z" fill="#83CF8F"/>
<path d="M55.9316 26.0092C58.2301 27.9854 58.4909 31.4491 56.5156 33.7457C54.5403 36.0442 51.0766 36.3041 48.7791 34.3297C46.4816 32.3554 46.2207 28.8907 48.196 26.5932C50.1713 24.2957 53.635 24.0348 55.9325 26.0092H55.9316Z" fill="#75BD80"/>
<path d="M53.6152 29.8927C53.4828 29.779 53.3384 29.7277 53.1863 29.7385C53.0331 29.7493 52.8157 29.8383 52.5312 30.0053L53.6073 30.9303C53.8959 30.4825 53.8988 30.1357 53.6142 29.8917L53.6152 29.8927ZM50.5933 29.9293C50.7336 30.0499 50.8819 30.1052 51.0379 30.0944C51.1941 30.0845 51.3985 30.0094 51.6505 29.8691L50.5794 28.949C50.4519 29.1576 50.3907 29.3452 50.3956 29.5132C50.4015 29.6812 50.4668 29.8205 50.5943 29.9293H50.5933ZM53.9828 29.3907C54.2338 29.6071 54.3603 29.8799 54.3623 30.2079C54.3633 30.536 54.2407 30.8878 53.9927 31.2613L54.635 31.8137L54.3277 32.1704L53.71 31.6408C53.5322 31.8474 53.3443 32.0341 53.1448 32.2001C52.9461 32.3651 52.7653 32.4867 52.6013 32.5607L52.1694 32.1891C52.3701 32.0953 52.5776 31.9658 52.7931 31.8037C53.0085 31.6397 53.1863 31.4766 53.3287 31.3125L52.1092 30.265C51.6646 30.5406 51.297 30.686 51.0074 30.7017C50.7178 30.7175 50.4471 30.6177 50.1961 30.4023C49.954 30.1938 49.8365 29.929 49.8434 29.6087C49.8493 29.2885 49.9679 28.9595 50.2 28.6235L49.696 28.1898L50.0024 27.8321L50.5004 28.261C50.8018 27.9299 51.1516 27.6611 51.55 27.4546L51.7901 27.9102C51.4443 28.092 51.139 28.3164 50.876 28.5822L52.0766 29.6148C52.4185 29.4043 52.6953 29.265 52.9056 29.1968C53.1171 29.1285 53.3099 29.1088 53.4818 29.1385C53.6537 29.1682 53.8217 29.2522 53.9828 29.3915V29.3907Z" fill="white"/>
<path d="M60.9129 12.5964L45.2906 49.9193L27.8383 42.6145L43.4614 5.29065L60.9129 12.5964Z" fill="#83CF8F"/>
<path d="M49.944 29.9362C48.6565 33.0114 45.1208 34.4611 42.0444 33.1735C38.9702 31.8859 37.5196 28.3492 38.8072 25.2739C40.0947 22.1997 43.6304 20.749 46.7068 22.0376C49.782 23.3243 51.2306 26.86 49.944 29.9362ZM29.4727 41.9448L44.6215 48.285L59.2794 13.2655L44.1315 6.92432L29.4727 41.9438V41.9448Z" fill="#75BD80"/>
<path d="M54.2654 12.5224L48.1802 9.97485C47.3986 11.8406 45.2522 12.7211 43.3864 11.9403L32.5212 37.8971C34.3879 38.6778 35.2675 40.8242 34.4857 42.6899L40.572 45.2365C41.3535 43.3708 43.499 42.4912 45.3657 43.272L56.2309 17.3142C54.3642 16.5336 53.4847 14.3871 54.2664 12.5214L54.2654 12.5224Z" fill="#83CF8F"/>
<path d="M46.7107 22.0267C49.7908 23.3172 51.2436 26.86 49.9539 29.941C48.6643 33.0221 45.1206 34.4739 42.0405 33.1842C38.9594 31.8947 37.5066 28.351 38.7963 25.2699C40.086 22.1888 43.6294 20.7362 46.7107 22.0267Z" fill="#3FA344"/>
<path d="M45.603 26.8866C45.4252 26.8124 45.2572 26.8065 45.102 26.8708C44.9448 26.9351 44.7472 27.102 44.5051 27.3738L45.9498 27.9786C46.1011 27.4104 45.9844 27.0457 45.604 26.8866H45.603ZM42.4477 27.953C42.6364 28.0321 42.8105 28.039 42.9704 27.9758C43.1316 27.9115 43.3192 27.7643 43.5366 27.5312L42.1008 26.9304C42.0364 27.1912 42.0364 27.4096 42.0998 27.5845C42.1619 27.7594 42.2786 27.8819 42.4486 27.9531L42.4477 27.953ZM45.8194 26.2354C46.1554 26.3767 46.3807 26.6188 46.4943 26.9637C46.6071 27.3076 46.598 27.7187 46.4656 28.195L47.3263 28.5556L47.1257 29.0348L46.2976 28.689C46.181 28.9657 46.0476 29.2256 45.8955 29.4676C45.7423 29.7098 45.5941 29.8965 45.4488 30.0308L44.8696 29.7877C45.0465 29.6217 45.2204 29.4151 45.3914 29.1721C45.5613 28.927 45.6927 28.6949 45.7856 28.4745L44.1512 27.7907C43.7786 28.2304 43.4426 28.5082 43.1452 28.6229C42.8467 28.7385 42.5286 28.7256 42.1926 28.5843C41.8684 28.4489 41.655 28.2117 41.5523 27.8737C41.4496 27.5348 41.4624 27.1504 41.5908 26.7186L40.9159 26.4359L41.1165 25.9567L41.7846 26.2364C41.9872 25.7867 42.2638 25.3856 42.6107 25.0328L43.0169 25.43C42.7165 25.7373 42.4724 26.0763 42.2857 26.4459L43.8964 27.1199C44.183 26.7829 44.425 26.5427 44.6237 26.3985C44.8224 26.2553 45.016 26.1693 45.2068 26.1406C45.3964 26.1129 45.601 26.1445 45.8194 26.2354Z" fill="#7DBF76"/>
<path d="M51.1872 7.21582L51.28 47.6772L32.3602 47.7207L32.2683 7.2593L51.1872 7.21582Z" fill="#83CF8F"/>
<path d="M47.8096 27.4549C47.8175 30.789 45.1217 33.4967 41.7885 33.5045C38.4544 33.5124 35.7467 30.8167 35.7379 27.4825C35.731 24.1494 38.4267 21.4407 41.7599 21.4338C45.094 21.4249 47.8025 24.1216 47.8096 27.4549ZM33.6073 46.4696L50.028 46.431L49.9411 8.46777L33.5194 8.50534L33.6073 46.4686V46.4696Z" fill="#75BD80"/>
<path d="M45.0317 9.72876L38.4346 9.74451C38.4385 11.7674 36.8022 13.4107 34.7793 13.4156L34.8446 41.5543C36.8675 41.5493 38.5117 43.1867 38.5166 45.2086L45.1138 45.1928C45.1088 43.17 46.7452 41.5267 48.7671 41.5218L48.7028 13.3831C46.6799 13.387 45.0357 11.7507 45.0307 9.72876H45.0317Z" fill="#83CF8F"/>
<path d="M41.7599 21.421C45.099 21.4132 47.8134 24.1158 47.8215 27.4549C47.8293 30.7951 45.1277 33.5095 41.7886 33.5156C38.4484 33.5234 35.735 30.8218 35.726 27.4827C35.7191 24.1425 38.4209 21.4289 41.7599 21.421Z" fill="#75BD80"/>
<path d="M42.6256 26.3292C42.4338 26.3302 42.2768 26.3904 42.1572 26.51C42.0386 26.6296 41.92 26.8608 41.8035 27.2046L43.3688 27.2017C43.2868 26.6196 43.0387 26.329 42.6258 26.33V26.3292H42.6256ZM40.1314 28.5368C40.336 28.5368 40.4991 28.4746 40.6226 28.355C40.7461 28.2335 40.8618 28.024 40.9704 27.7265L39.413 27.7295C39.4564 27.9953 39.5404 28.1959 39.665 28.3322C39.7895 28.4696 39.9447 28.5378 40.1304 28.5368H40.1314ZM42.5721 25.6454C42.9378 25.6454 43.2382 25.7807 43.4773 26.0546C43.7145 26.3272 43.8656 26.7106 43.928 27.2009L44.8618 27.1989L44.8628 27.7186L43.9655 27.7196C43.9655 28.021 43.9437 28.3125 43.8963 28.5933C43.8499 28.8759 43.7855 29.1061 43.7035 29.2869H43.075C43.1728 29.0646 43.2538 28.8077 43.3172 28.5162C43.3793 28.2256 43.41 27.9608 43.409 27.7206L41.6381 27.7246C41.4652 28.275 41.2636 28.6613 41.0334 28.8827C40.8032 29.106 40.5058 29.2157 40.1401 29.2167C39.7883 29.2177 39.4997 29.0823 39.2745 28.8105C39.0482 28.5388 38.9108 28.179 38.8614 27.7305L38.1282 27.7314L38.1272 27.2127L38.8525 27.2117C38.8643 26.7175 38.9623 26.2413 39.147 25.7817L39.6746 25.9902C39.5165 26.3904 39.4246 26.7976 39.3959 27.2107L41.142 27.2068C41.2754 26.7858 41.4058 26.4696 41.5323 26.2601C41.6588 26.0496 41.804 25.8964 41.9691 25.7957C42.1341 25.6969 42.3338 25.6464 42.5708 25.6454H42.5721Z" fill="white"/>
<path d="M35.563 7.93811L51.7594 45.0159L34.4216 52.5894L18.2262 15.5106L35.563 7.93811Z" fill="#83CF8F"/>
<path d="M40.5236 27.8472C41.8586 30.9027 40.4634 34.4602 37.4089 35.7952C34.3544 37.1292 30.7959 35.735 29.4619 32.6795C28.1279 29.624 29.5231 26.0664 32.5776 24.7324C35.6321 23.3975 39.1906 24.7926 40.5246 27.8472H40.5236ZM35.0669 50.944L50.1151 44.3715L34.9196 9.58142L19.8715 16.1549L35.0677 50.944H35.0669Z" fill="#75BD80"/>
<path d="M30.9174 12.6934L24.8717 15.3338C25.682 17.1877 24.8351 19.3477 22.9813 20.1571L34.2447 45.9439C36.0996 45.1336 38.2587 45.9805 39.068 47.8342L45.1137 45.1928C44.3034 43.3399 45.1503 41.1808 47.004 40.3705L35.7398 14.5837C33.8859 15.395 31.7268 14.5471 30.9165 12.6934H30.9174Z" fill="#83CF8F"/>
<path d="M32.5716 24.7216C35.632 23.3847 39.1964 24.7828 40.5334 27.8433C41.8703 30.9037 40.4742 34.4701 37.4128 35.806C34.3514 37.143 30.7869 35.7458 29.45 32.6844C28.1129 29.624 29.5112 26.0596 32.5716 24.7216Z" fill="#75BD80"/>
<path d="M35.3199 28.8798C35.144 28.9579 35.0234 29.0745 34.9622 29.2315C34.9 29.3887 34.8841 29.6466 34.9138 30.0102L36.3487 29.3836C36.0412 28.8817 35.6983 28.7137 35.3199 28.8798ZM33.9117 31.8977C34.0984 31.8157 34.2239 31.6951 34.2882 31.5361C34.3535 31.375 34.3762 31.1369 34.3584 30.8196L32.9304 31.4432C33.0766 31.6705 33.2338 31.8207 33.4028 31.8959C33.5718 31.9718 33.7408 31.9728 33.9117 31.8977ZM34.9976 28.2731C35.3327 28.1269 35.6637 28.1318 35.9907 28.2878C36.3178 28.443 36.6074 28.7346 36.8612 29.1595L37.716 28.7859L37.9245 29.2622L37.1024 29.6208C37.222 29.8955 37.3178 30.1722 37.387 30.4489C37.4573 30.7256 37.4897 30.9637 37.4848 31.1614L36.9096 31.4114C36.9106 31.1683 36.8829 30.9015 36.8246 30.608C36.7654 30.3155 36.6883 30.0605 36.5925 29.8422L34.9699 30.5507C35.0301 31.1238 34.9996 31.5597 34.877 31.8552C34.7535 32.1497 34.5253 32.371 34.1913 32.5164C33.8691 32.6576 33.5499 32.6478 33.2346 32.4886C32.9193 32.3295 32.6506 32.0549 32.4263 31.6626L31.7553 31.9561L31.5477 31.4808L32.2109 31.1903C32.0261 30.7327 31.9262 30.2564 31.9115 29.7623L32.4786 29.7426C32.4934 30.1724 32.5695 30.5826 32.7078 30.9729L34.3087 30.2743C34.2633 29.8346 34.2564 29.4937 34.289 29.2505C34.3217 29.0074 34.3947 28.8079 34.5064 28.6517C34.6172 28.4944 34.7812 28.3679 34.9976 28.2731Z" fill="white"/>
<path d="M43.6789 42.4941L40.8506 48.7722L43.5473 53.4068C46.6186 58.6856 31.4914 56.8258 32.7455 51.882C32.8729 51.378 33.8275 48.1969 34.3167 47.6951L37.8148 44.1029L39.4167 40.3528C41.0395 35.4493 45.6465 38.1273 43.6789 42.4941Z" fill="#FED298"/>
<path d="M40.5879 38.7993C40.9831 37.9573 42.9734 38.0858 42.9358 39.0245L42.1412 41.4633C42.1412 41.4633 40.1451 40.6441 39.561 41.0067L40.5879 38.7993Z" fill="#FFF7DF"/>
<path d="M27.6327 77.7655H50.8858V83.0552C48.0211 83.6719 45.0496 84 42.001 84C36.9542 84 32.116 83.1087 27.6337 81.4773V77.7657H27.6327V77.7655Z" fill="#FFE356"/>
<path d="M28.7614 77.7654H49.7553V75.0262H28.7614V77.7654Z" fill="white"/>
</svg>
