<svg width="88" height="88" viewBox="0 0 88 88" fill="none" xmlns="http://www.w3.org/2000/svg">
<g clip-path="url(#clip0_296_504)">
<path d="M53.2723 54.7651C52.7222 60.4018 46.0014 71.1489 46.0538 73.395C46.1062 75.6411 48.3915 85.9069 48.3915 85.9069H34.3668L33.542 73.2582C33.4535 71.8966 29.3521 57.4811 36.4092 51.5647L40.0046 51.9463L41.9287 54.4217C46.1267 51.0649 48.3563 47.8254 44.8113 41.6415L42.6104 41.7402C40.5515 39.3913 41.7065 38.6919 44.2909 38.1643C46.6367 37.685 48.3686 38.1663 49.6367 39.2524C50.7906 40.575 53.7031 50.3295 53.2701 54.7642L53.2723 54.7651Z" fill="#FED298"/>
<path d="M73.7103 22.9749L48.808 51.9395L35.2646 40.2956L60.167 11.3301L73.7103 22.9749Z" fill="#83CF8F"/>
<path d="M58.8073 35.35C56.7556 37.736 53.1581 38.0085 50.7711 35.9558C48.3852 33.9031 48.1137 30.3056 50.1653 27.9196C52.218 25.5326 55.8155 25.2612 58.2015 27.3138C60.5875 29.3655 60.8591 32.964 58.8073 35.35ZM36.9256 40.1702L48.6816 50.2775L72.0453 23.1004L60.2893 12.9941L36.9246 40.1713L36.9256 40.1702Z" fill="#75BD80"/>
<path d="M67.7619 20.9699L63.0393 16.9097C61.7939 18.3588 59.6104 18.5232 58.1625 17.2778L40.8438 37.4217C42.2918 38.6671 42.4573 40.8504 41.2119 42.2984L45.9344 46.3587C47.1788 44.9106 49.3621 44.7462 50.8112 45.9916L68.1298 25.8479C66.6807 24.6025 66.5173 22.4192 67.7627 20.9701L67.7619 20.9699Z" fill="#83CF8F"/>
<path d="M58.209 27.3043C60.6011 29.3611 60.8726 32.9658 58.8168 35.3559C56.7611 37.748 53.1564 38.0184 50.7653 35.9637C48.3742 33.909 48.1027 30.3033 50.1585 27.9122C52.2142 25.5211 55.8189 25.2496 58.21 27.3043H58.209Z" fill="#75BD80"/>
<path d="M55.7982 31.346C55.6604 31.2277 55.5101 31.1742 55.3519 31.1855C55.1924 31.1968 54.9662 31.2893 54.6701 31.4631L55.79 32.4258C56.0903 31.9598 56.0934 31.5989 55.7972 31.345L55.7982 31.346ZM52.6533 31.3841C52.7993 31.5096 52.9536 31.5671 53.116 31.5558C53.2785 31.5456 53.4913 31.4674 53.7535 31.3214L52.6388 30.3639C52.5061 30.5809 52.4424 30.7762 52.4475 30.9511C52.4537 31.1259 52.5216 31.2709 52.6543 31.3841H52.6533ZM56.1808 30.8235C56.4421 31.0487 56.5737 31.3327 56.5757 31.674C56.5768 32.0155 56.4492 32.3816 56.1911 32.7703L56.8595 33.3452L56.5397 33.7164L55.8969 33.1653C55.7118 33.3802 55.5163 33.5745 55.3087 33.7473C55.1019 33.9191 54.9137 34.0456 54.743 34.1226L54.2936 33.7359C54.5024 33.6382 54.7184 33.5035 54.9426 33.3348C55.1668 33.1641 55.3519 32.9944 55.5001 32.8236L54.2309 31.7334C53.7682 32.0203 53.3856 32.1715 53.0842 32.1879C52.7829 32.2043 52.5011 32.1005 52.2399 31.8763C51.9879 31.6593 51.8656 31.3837 51.8728 31.0504C51.879 30.7172 52.0024 30.3748 52.244 30.0251L51.7195 29.5737L52.0383 29.2015L52.5566 29.6478C52.8703 29.3032 53.2343 29.0236 53.6489 28.8086L53.8988 29.2827C53.5389 29.4719 53.2212 29.7055 52.9475 29.9821L54.197 31.0568C54.5528 30.8377 54.8408 30.6927 55.0597 30.6217C55.2798 30.5507 55.4804 30.5302 55.6594 30.5611C55.8383 30.592 56.0131 30.6794 56.1808 30.8244V30.8235Z" fill="white"/>
<path d="M63.3931 13.3449L47.1346 52.1875L28.9717 44.5853L45.231 5.7417L63.3931 13.3449Z" fill="#83CF8F"/>
<path d="M51.9775 31.3913C50.6375 34.5917 46.9579 36.1003 43.7563 34.7604C40.5569 33.4204 39.0472 29.7397 40.3872 26.5391C41.7272 23.3397 45.4068 21.83 48.6084 23.171C51.8088 24.5102 53.3165 28.1898 51.9775 31.3913ZM30.6726 43.8888L46.4383 50.4871L61.693 14.0418L45.9283 7.44238L30.6726 43.8878V43.8888Z" fill="#75BD80"/>
<path d="M56.475 13.2685L50.142 10.6172C49.3286 12.5589 47.0947 13.4752 45.1531 12.6627L33.8455 39.6764C35.7882 40.4888 36.7035 42.7226 35.8899 44.6643L42.224 47.3146C43.0374 45.3729 45.2702 44.4575 47.2129 45.2701L58.5205 18.2554C56.5778 17.443 55.6625 15.2091 56.476 13.2675L56.475 13.2685Z" fill="#83CF8F"/>
<path d="M48.6125 23.1596C51.8181 24.5027 53.33 28.1897 51.9878 31.3962C50.6457 34.6028 46.9577 36.1137 43.7522 34.7715C40.5456 33.4295 39.0337 29.7414 40.3759 26.5349C41.7181 23.3283 45.4058 21.8166 48.6125 23.1596Z" fill="#3FA344"/>
<path d="M47.4595 28.2173C47.2744 28.1401 47.0996 28.134 46.938 28.2009C46.7745 28.2678 46.5689 28.4415 46.3169 28.7244L47.8204 29.3538C47.9779 28.7625 47.8565 28.3829 47.4605 28.2173H47.4595ZM44.1758 29.3271C44.3721 29.4094 44.5533 29.4166 44.7198 29.3509C44.8874 29.2839 45.0828 29.1308 45.309 28.8882L43.8146 28.2629C43.7477 28.5344 43.7477 28.7616 43.8136 28.9436C43.8783 29.1257 43.9997 29.2532 44.1766 29.3273L44.1758 29.3271ZM47.6847 27.5396C48.0344 27.6866 48.2688 27.9387 48.3871 28.2976C48.5044 28.6554 48.495 29.0833 48.3573 29.579L49.253 29.9543L49.0442 30.453L48.1824 30.0931C48.061 30.3811 47.9222 30.6516 47.7639 30.9034C47.6045 31.1554 47.4503 31.3498 47.299 31.4896L46.6963 31.2366C46.8803 31.0638 47.0613 30.8488 47.2392 30.5959C47.4161 30.3408 47.5529 30.0992 47.6495 29.8699L45.9486 29.1583C45.5608 29.6159 45.2112 29.9049 44.9016 30.0243C44.591 30.1447 44.2599 30.1312 43.9103 29.9842C43.5729 29.8433 43.3507 29.5964 43.2439 29.2447C43.137 28.8919 43.1503 28.4919 43.284 28.0425L42.5815 27.7483L42.7904 27.2495L43.4856 27.5407C43.6965 27.0727 43.9844 26.6552 44.3453 26.2881L44.7681 26.7015C44.4554 27.0213 44.2014 27.374 44.0071 27.7587L45.6834 28.4601C45.9817 28.1094 46.2336 27.8594 46.4403 27.7093C46.6471 27.5603 46.8486 27.4708 47.0471 27.4409C47.2445 27.4121 47.4574 27.445 47.6847 27.5396Z" fill="#7DBF76"/>
<path d="M53.2712 7.74609L53.3679 49.855L33.6776 49.9003L33.582 7.79134L53.2712 7.74609Z" fill="#83CF8F"/>
<path d="M49.7563 28.8091C49.7645 32.2789 46.959 35.0968 43.4901 35.105C40.0202 35.1132 37.2023 32.3077 37.1931 28.8377C37.1859 25.3689 39.9914 22.55 43.4603 22.5428C46.9302 22.5336 49.749 25.3401 49.7563 28.8091ZM34.9758 48.598L52.0651 48.5578L51.9746 9.04883L34.8843 9.08793L34.9758 48.5969V48.598Z" fill="#75BD80"/>
<path d="M46.8652 10.3608L39.9995 10.3772C40.0036 12.4825 38.3006 14.1926 36.1953 14.1978L36.2633 43.4822C38.3685 43.4771 40.0797 45.1811 40.0848 47.2853L46.9506 47.2689C46.9454 45.1637 48.6484 43.4535 50.7527 43.4484L50.6857 14.164C48.5805 14.1681 46.8693 12.4651 46.8642 10.3608H46.8652Z" fill="#83CF8F"/>
<path d="M43.46 22.5293C46.9351 22.5211 49.7601 25.3338 49.7684 28.8089C49.7766 32.285 46.965 35.11 43.4899 35.1163C40.0137 35.1245 37.1898 32.3129 37.1804 28.8377C37.1733 25.3616 39.9851 22.5375 43.46 22.5293Z" fill="#75BD80"/>
<path d="M44.3613 27.6374C44.1617 27.6385 43.9983 27.7011 43.8738 27.8256C43.7504 27.9501 43.6269 28.1906 43.5057 28.5485L45.1347 28.5454C45.0494 27.9397 44.7912 27.6373 44.3615 27.6383V27.6374H44.3613ZM41.7655 29.9349C41.9784 29.9349 42.1481 29.8702 42.2767 29.7458C42.4053 29.6192 42.5256 29.4012 42.6387 29.0917L41.0178 29.0947C41.063 29.3713 41.1505 29.5801 41.2801 29.722C41.4097 29.8649 41.5712 29.936 41.7645 29.9349H41.7655ZM44.3056 26.9258C44.6862 26.9258 44.9988 27.0666 45.2476 27.3516C45.4945 27.6354 45.6518 28.0344 45.7166 28.5446L46.6885 28.5425L46.6895 29.0835L45.7557 29.0845C45.7557 29.3981 45.733 29.7015 45.6837 29.9937C45.6354 30.2879 45.5684 30.5274 45.4831 30.7156H44.8289C44.9307 30.4842 45.0151 30.2168 45.081 29.9134C45.1457 29.6111 45.1776 29.3355 45.1766 29.0855L43.3336 29.0896C43.1536 29.6624 42.9438 30.0645 42.7042 30.2949C42.4647 30.5273 42.1551 30.6415 41.7745 30.6425C41.4085 30.6435 41.1081 30.5027 40.8737 30.2197C40.6382 29.937 40.4952 29.5626 40.4438 29.0958L39.6807 29.0968L39.6797 28.5569L40.4345 28.5559C40.4468 28.0416 40.5488 27.5459 40.741 27.0677L41.2901 27.2847C41.1255 27.7011 41.0299 28.1249 41 28.5548L42.8173 28.5507C42.9561 28.1126 43.0918 27.7836 43.2235 27.5656C43.3551 27.3465 43.5062 27.187 43.678 27.0822C43.8497 26.9794 44.0575 26.9268 44.3043 26.9258H44.3056Z" fill="white"/>
<path d="M37.0107 8.49707L53.8666 47.0846L35.8229 54.9664L18.968 16.3779L37.0107 8.49707Z" fill="#83CF8F"/>
<path d="M42.1735 29.217C43.5628 32.3969 42.1109 36.0993 38.932 37.4886C35.7531 38.8769 32.0497 37.426 30.6614 34.246C29.273 31.0661 30.725 27.3637 33.9039 25.9754C37.0828 24.5861 40.7862 26.0381 42.1745 29.217H42.1735ZM36.4946 53.2543L52.1555 46.4142L36.3413 10.2075L20.6804 17.0487L36.4955 53.2543H36.4946Z" fill="#75BD80"/>
<path d="M32.1764 13.4463L25.8845 16.1942C26.7278 18.1236 25.8465 20.3716 23.9172 21.2139L35.6392 48.0507C37.5697 47.2074 39.8166 48.0888 40.6589 50.018L46.9508 47.2691C46.1075 45.3407 46.9888 43.0937 48.9181 42.2504L37.1952 15.4136C35.2658 16.2579 33.0188 15.3755 32.1756 13.4463H32.1764Z" fill="#83CF8F"/>
<path d="M33.8978 25.9642C37.0829 24.5728 40.7924 26.0279 42.1838 29.2129C43.5752 32.398 42.1222 36.1096 38.9361 37.4999C35.75 38.8913 32.0405 37.4373 30.6491 34.2512C29.2576 31.0662 30.7128 27.3566 33.8978 25.9642Z" fill="#75BD80"/>
<path d="M36.758 30.2921C36.575 30.3734 36.4495 30.4948 36.3858 30.6582C36.3211 30.8217 36.3045 31.0901 36.3354 31.4685L37.8287 30.8164C37.5087 30.2941 37.1519 30.1193 36.758 30.2921ZM35.2925 33.4329C35.4868 33.3475 35.6174 33.222 35.6844 33.0566C35.7523 32.8889 35.7759 32.6412 35.7574 32.3109L34.2713 32.9599C34.4234 33.1964 34.587 33.3528 34.7629 33.431C34.9387 33.5101 35.1146 33.5111 35.2925 33.4329ZM36.4227 29.6607C36.7713 29.5085 37.1159 29.5137 37.4562 29.676C37.7966 29.8376 38.098 30.141 38.3621 30.5832L39.2517 30.1944L39.4687 30.6901L38.6131 31.0633C38.7376 31.3492 38.8373 31.6372 38.9093 31.9251C38.9824 32.2131 39.0162 32.4609 39.0111 32.6666L38.4125 32.9268C38.4135 32.6738 38.3847 32.3961 38.324 32.0907C38.2624 31.7863 38.1822 31.5209 38.0824 31.2937L36.3938 32.0311C36.4565 32.6275 36.4247 33.0812 36.2972 33.3887C36.1686 33.6952 35.9311 33.9255 35.5835 34.0768C35.2481 34.2238 34.916 34.2135 34.5879 34.0479C34.2597 33.8823 33.98 33.5965 33.7466 33.1882L33.0483 33.4937L32.8323 32.999L33.5224 32.6967C33.3302 32.2204 33.2262 31.7248 33.2108 31.2105L33.8011 31.19C33.8164 31.6374 33.8957 32.0642 34.0396 32.4704L35.7057 31.7434C35.6584 31.2858 35.6512 30.931 35.6852 30.678C35.7192 30.4249 35.7952 30.2173 35.9114 30.0548C36.0267 29.891 36.1974 29.7594 36.4227 29.6607Z" fill="white"/>
<path d="M45.4572 44.4607L42.5138 50.9944L45.3203 55.8177C48.5166 61.3115 32.7734 59.3759 34.0786 54.2308C34.2112 53.7063 35.2046 50.3957 35.7138 49.8734L39.3543 46.135L41.0215 42.2322C42.7103 37.129 47.5049 39.9161 45.4572 44.4607Z" fill="#FED298"/>
<path d="M42.2406 40.6153C42.6519 39.7391 44.7232 39.8728 44.6841 40.8498L43.8571 43.3879C43.8571 43.3879 41.7797 42.5353 41.1719 42.9127L42.2406 40.6153Z" fill="#FFF7DF"/>
<path d="M28.7578 81.168H52.9577V86.6731C49.9764 87.3149 46.8839 87.6564 43.7111 87.6564C38.4589 87.6564 33.4237 86.7287 28.7588 85.0309V81.1681H28.7578V81.168Z" fill="#FFE356"/>
<path d="M29.9321 81.1681H51.7809V78.3174H29.9321V81.1681Z" fill="white"/>
</g>
<defs>
<clipPath id="clip0_296_504">
<rect width="87.4203" height="87.4203" fill="white" transform="translate(0 0.23584)"/>
</clipPath>
</defs>
</svg>
