<svg width="46" height="41" viewBox="0 0 46 41" fill="none" xmlns="http://www.w3.org/2000/svg">
<g filter="url(#filter0_d_8_405)">
<rect x="4" y="33" width="33" height="38" rx="10" transform="rotate(-90 4 33)" fill="#FF0000" fill-opacity="0.72"/>
<path d="M16.2937 10.2937C16.3866 10.2006 16.4969 10.1267 16.6184 10.0763C16.7398 10.0259 16.8701 10 17.0016 10C17.1331 10 17.2633 10.0259 17.3848 10.0763C17.5062 10.1267 17.6165 10.2006 17.7094 10.2937L23.0003 15.5866L28.2911 10.2937C28.3841 10.2008 28.4944 10.127 28.6159 10.0767C28.7373 10.0264 28.8675 10.0005 28.999 10.0005C29.1304 10.0005 29.2606 10.0264 29.382 10.0767C29.5035 10.127 29.6138 10.2008 29.7068 10.2937C29.7998 10.3867 29.8735 10.497 29.9238 10.6185C29.9741 10.7399 30 10.8701 30 11.0016C30 11.133 29.9741 11.2632 29.9238 11.3847C29.8735 11.5061 29.7998 11.6165 29.7068 11.7094L24.414 17.0003L29.7068 22.2911C29.7998 22.3841 29.8735 22.4944 29.9238 22.6159C29.9741 22.7373 30 22.8675 30 22.999C30 23.1304 29.9741 23.2606 29.9238 23.382C29.8735 23.5035 29.7998 23.6138 29.7068 23.7068C29.6138 23.7998 29.5035 23.8735 29.382 23.9238C29.2606 23.9741 29.1304 24 28.999 24C28.8675 24 28.7373 23.9741 28.6159 23.9238C28.4944 23.8735 28.3841 23.7998 28.2911 23.7068L23.0003 18.414L17.7094 23.7068C17.6165 23.7998 17.5061 23.8735 17.3847 23.9238C17.2632 23.9741 17.133 24 17.0016 24C16.8701 24 16.7399 23.9741 16.6185 23.9238C16.497 23.8735 16.3867 23.7998 16.2937 23.7068C16.2008 23.6138 16.127 23.5035 16.0767 23.382C16.0264 23.2606 16.0005 23.1304 16.0005 22.999C16.0005 22.8675 16.0264 22.7373 16.0767 22.6159C16.127 22.4944 16.2008 22.3841 16.2937 22.2911L21.5866 17.0003L16.2937 11.7094C16.2006 11.6165 16.1267 11.5062 16.0763 11.3848C16.0259 11.2633 16 11.1331 16 11.0016C16 10.8701 16.0259 10.7398 16.0763 10.6184C16.1267 10.4969 16.2006 10.3866 16.2937 10.2937Z" fill="#FBF4E6"/>
</g>
<defs>
<filter id="filter0_d_8_405" x="0" y="0" width="46" height="41" filterUnits="userSpaceOnUse" color-interpolation-filters="sRGB">
<feFlood flood-opacity="0" result="BackgroundImageFix"/>
<feColorMatrix in="SourceAlpha" type="matrix" values="0 0 0 0 0 0 0 0 0 0 0 0 0 0 0 0 0 0 127 0" result="hardAlpha"/>
<feOffset dy="4"/>
<feGaussianBlur stdDeviation="2"/>
<feComposite in2="hardAlpha" operator="out"/>
<feColorMatrix type="matrix" values="0 0 0 0 0 0 0 0 0 0 0 0 0 0 0 0 0 0 0.25 0"/>
<feBlend mode="normal" in2="BackgroundImageFix" result="effect1_dropShadow_8_405"/>
<feBlend mode="normal" in="SourceGraphic" in2="effect1_dropShadow_8_405" result="shape"/>
</filter>
</defs>
</svg>
