<svg width="84" height="84" viewBox="0 0 84 84" fill="none" xmlns="http://www.w3.org/2000/svg">
<path d="M47.9791 41.3682H42H36.0209L35.062 51.3971L32.5238 55.0861L16.369 61.3359C16.369 61.3359 11.6873 64.8217 11.0442 68.161C10.954 68.6349 10.8862 69.3229 10.83 70.1465C18.5125 78.6525 29.6358 83.9886 42 83.9886C54.3643 83.9886 65.4762 78.6414 73.1701 70.1465C73.1137 69.3118 73.0461 68.6349 72.9558 68.161C72.324 64.8219 67.631 61.3359 67.631 61.3359L51.4763 55.0861L48.9381 51.3971L47.9791 41.3682Z" fill="#FED298"/>
<path d="M48.4303 46.817L48.5883 48.4076C47.7084 49.4341 46.7946 50.4269 45.9259 51.3745C44.9444 52.4461 38.9089 52.4688 37.9162 51.3294C37.1152 50.4044 36.224 49.389 35.344 48.3173L35.4907 46.7379C36.3143 47.6969 37.149 48.5994 37.9048 49.4341C38.8863 50.5171 44.9331 50.5058 45.9145 49.4792C46.7268 48.6218 47.5842 47.742 48.419 46.8168H48.4303V46.817Z" fill="#F0B97D"/>
<path d="M27.1087 26.1499C23.3746 25.4843 26.556 36.6302 29.286 34.9719L30.7525 39.27C32.0724 43.1394 35.3891 46.6592 37.9162 49.4456C38.9089 50.5286 44.9444 50.5173 45.9258 49.4908C48.7236 46.5463 52.0516 43.241 53.3037 39.2473L54.6463 34.9717C57.3763 36.6301 60.5463 25.4955 56.8235 26.1497C57.0831 17.4745 50.946 9.07002 41.9775 9.0249C32.9977 9.0587 26.872 17.4746 27.1315 26.1497L27.1087 26.1499Z" fill="#FED298"/>
<path d="M35.0508 51.3974L32.5126 55.0863L16.3579 61.3361C15.196 62.2724 11.4844 65.8373 11.033 68.1613C10.9202 68.7367 10.8526 69.4023 10.7961 70.1243C18.4787 78.6414 29.6133 84 41.9887 84C53.9242 84 65.1829 78.9799 73.1812 70.1241C73.1248 69.4021 73.0572 68.7365 72.9443 68.1611C72.5043 65.8372 68.7929 62.2723 67.6195 61.336L51.4648 55.0862L48.9266 51.3972L42.0225 56.0676L41.9887 56.0449L41.9549 56.0676L35.0508 51.3974Z" fill="#6B7F9E"/>
<path d="M35.0508 51.3973L32.5237 55.0863L37.0814 62.1708L42.0338 56.0677L35.0508 51.3973Z" fill="white"/>
<path d="M48.9492 51.3973L51.5552 55.0863L46.9864 62.1708L42.0338 56.0677L48.9492 51.3973Z" fill="white"/>
<path d="M62.3626 78.7429L62.0919 77.863L61.9904 78.9573C62.1144 78.8896 62.2386 78.822 62.3739 78.7431H62.3626V78.7429Z" fill="#FCB072"/>
<path d="M21.6374 78.7429L21.9081 77.863L22.0096 78.9573C21.8856 78.8896 21.7614 78.822 21.626 78.7431H21.6374V78.7429Z" fill="#FCB072"/>
<path d="M47.1217 74.7268H61.3361V76.2836H47.1217V74.7268Z" fill="#8597B1"/>
<path d="M48.8138 64.9121H60.2869C60.8623 64.9121 61.3361 65.3859 61.3361 65.9613V74.7381H48.8138V64.9121Z" fill="white"/>
<path d="M26.6801 26.195C24.9089 12.116 36.2691 7.16357 42 7.16357C47.7082 7.16357 59.5197 12.2966 57.3198 26.195C56.5978 26.1385 55.8419 27.0073 55.8419 27.0073C38.9089 28.5527 45.1698 28.5416 28.169 27.0073C28.169 27.0073 27.4019 26.1385 26.6911 26.195H26.6801Z" fill="#83CF8F"/>
<path d="M48.8138 64.9121H50.3593V74.7268H48.8138V64.9121Z" fill="#83CF8F"/>
<path d="M47.8776 67.6761L49.6261 67.7099L49.5923 74.7269L47.8438 74.7043L47.8776 67.6761Z" fill="#FFE356"/>
<path d="M48.9718 67.6873L49.0056 72.3578L48.7462 72.7752L48.498 72.3578L48.5318 67.6873H48.7462H48.9718Z" fill="white"/>
<path d="M47.9902 67.3263H49.4906C49.6034 67.3263 49.6937 67.4165 49.6937 67.5294V68.3642H47.7871V67.5294C47.7873 67.4165 47.8775 67.3263 47.9902 67.3263Z" fill="white"/>
<path d="M51.386 67.0443H60.3884V67.2361H51.386V67.0443ZM51.386 71.1506H60.3884V71.3424H51.386V71.1506ZM51.386 73.8357H60.3884V74.0275H51.386V73.8357ZM51.386 72.4932H60.3884V72.6849H51.386V72.4932ZM51.386 69.7292H60.3884V69.921H51.386V69.7292ZM51.386 68.3868H60.3884V68.5786H51.386V68.3868Z" fill="#E4E7ED"/>
<path d="M31.6326 28.3046L34.3514 32.8847C34.3514 32.8847 34.8139 33.6292 35.5586 33.3134C36.3031 33.0088 38.7512 30.4368 45.4297 31.4295C52.1196 32.4222 53.5974 34.1483 54.2855 33.7872C54.9624 33.415 55.9212 26.9283 55.9212 26.9283L47.6521 23.826C47.6521 23.826 38.9204 22.461 31.6216 28.3159L31.6326 28.3046Z" fill="#F0B97D"/>
<path d="M28.3497 26.9171C32.9749 23.9727 37.5439 22.5851 42.0902 22.5513C46.6366 22.5851 51.3069 23.9727 55.921 26.9171L52.9879 30.967C49.3554 29.038 45.7227 28.2257 42.0902 28.1468C38.4577 28.2257 34.8251 29.038 31.1925 30.967L28.3497 26.9171Z" fill="#6B7F9E"/>
<path d="M53.3038 30.5496L52.9991 30.967C49.3666 29.0379 45.7339 28.2257 42.1014 28.1467C38.4689 28.2257 34.8362 29.0379 31.2037 30.967L30.9217 30.5721C34.6671 28.643 38.4011 27.7179 42.1014 27.6841C45.7903 27.7067 49.5471 28.6317 53.3036 30.5383L53.3038 30.5496Z" fill="#5D718F"/>
</svg>
