<svg width="83" height="88" viewBox="0 0 83 88" fill="none" xmlns="http://www.w3.org/2000/svg">
<g clip-path="url(#clip0_296_699)">
<path d="M47.3669 43.2886H41.4641H35.5613L34.6146 53.7259L32.1088 57.5651L16.1603 64.0693C16.1603 64.0693 11.5383 67.6971 10.9034 71.1724C10.8143 71.6655 10.7474 72.3816 10.6919 73.2387C18.2764 82.0911 29.2577 87.6445 41.4641 87.6445C53.6705 87.6445 64.6407 82.0794 72.2363 73.2387C72.1806 72.37 72.1139 71.6655 72.0248 71.1724C71.4011 67.6973 66.768 64.0693 66.768 64.0693L50.8194 57.5651L48.3136 53.7259L47.3669 43.2886Z" fill="#FED298"/>
<path d="M47.8121 48.9593L47.9681 50.6146C47.0994 51.6829 46.1972 52.7161 45.3396 53.7023C44.3707 54.8176 38.4122 54.8412 37.4322 53.6554C36.6414 52.6927 35.7616 51.636 34.8928 50.5207L35.0376 48.877C35.8507 49.8749 36.6748 50.8142 37.421 51.6829C38.3899 52.81 44.3596 52.7982 45.3284 51.7299C46.1304 50.8376 46.9768 49.9219 47.8009 48.9591H47.8121V48.9593Z" fill="#F0B97D"/>
<path d="M26.7629 27.4507C23.0765 26.758 26.2172 38.3578 28.9124 36.6319L30.3602 41.105C31.6632 45.132 34.9376 48.7951 37.4324 51.695C38.4125 52.8221 44.3709 52.8103 45.3398 51.7419C48.1019 48.6776 51.3874 45.2377 52.6236 41.0814L53.949 36.6317C56.6441 38.3576 59.7737 26.7696 56.0984 27.4505C56.3547 18.422 50.2959 9.67537 41.4419 9.62842C32.5767 9.66359 26.5292 18.4222 26.7854 27.4505L26.7629 27.4507Z" fill="#FED298"/>
<path d="M34.6033 53.7262L32.0975 57.5654L16.1489 64.0697C15.0019 65.0441 11.3377 68.7542 10.8921 71.1727C10.7807 71.7715 10.7139 72.4642 10.6582 73.2157C18.2427 82.0796 29.2352 87.6564 41.4526 87.6564C53.2358 87.6564 64.3507 82.4319 72.247 73.2155C72.1913 72.4641 72.1246 71.7714 72.0132 71.1726C71.5788 68.754 67.9147 65.0439 66.7563 64.0695L50.8078 57.5652L48.3019 53.7261L41.486 58.5866L41.4526 58.563L41.4193 58.5866L34.6033 53.7262Z" fill="#6B7F9E"/>
<path d="M34.6032 53.7266L32.1084 57.5657L36.6079 64.9387L41.4971 58.5871L34.6032 53.7266Z" fill="white"/>
<path d="M48.3244 53.7266L50.8972 57.5657L46.3867 64.9387L41.4973 58.5871L48.3244 53.7266Z" fill="white"/>
<path d="M61.5667 82.1852L61.2995 81.2695L61.1992 82.4084C61.3217 82.3379 61.4443 82.2675 61.5779 82.1854H61.5667V82.1852Z" fill="#FCB072"/>
<path d="M21.3613 82.1852L21.6285 81.2695L21.7288 82.4084C21.6063 82.3379 21.4837 82.2675 21.3501 82.1854H21.3613V82.1852Z" fill="#FCB072"/>
<path d="M46.5203 78.0059H60.5532V79.626H46.5203V78.0059Z" fill="#8597B1"/>
<path d="M48.1909 67.791H59.5175C60.0856 67.791 60.5533 68.2841 60.5533 68.8829V78.0171H48.1909V67.791Z" fill="white"/>
<path d="M26.3398 27.4977C24.5912 12.8454 35.8063 7.69141 41.4641 7.69141C47.0994 7.69141 58.7602 13.0334 56.5884 27.4977C55.8755 27.439 55.1293 28.3431 55.1293 28.3431C38.4124 29.9515 44.5935 29.9399 27.8096 28.3431C27.8096 28.3431 27.0523 27.439 26.3506 27.4977H26.3398Z" fill="#83CF8F"/>
<path d="M48.1909 67.791H49.7167V78.0054H48.1909V67.791Z" fill="#83CF8F"/>
<path d="M47.2665 70.6675L48.9928 70.7027L48.9594 78.0053L47.2332 77.9818L47.2665 70.6675Z" fill="#FFE356"/>
<path d="M48.3467 70.6787L48.38 75.5394L48.124 75.9738L47.8789 75.5394L47.9123 70.6787H48.124H48.3467Z" fill="white"/>
<path d="M47.3778 70.3032H48.859C48.9704 70.3032 49.0595 70.3971 49.0595 70.5146V71.3833H47.1772V70.5146C47.1774 70.3971 47.2665 70.3032 47.3778 70.3032Z" fill="white"/>
<path d="M50.7302 70.0103H59.6178V70.2099H50.7302V70.0103ZM50.7302 74.2838H59.6178V74.4834H50.7302V74.2838ZM50.7302 77.0781H59.6178V77.2777H50.7302V77.0781ZM50.7302 75.681H59.6178V75.8806H50.7302V75.681ZM50.7302 72.8045H59.6178V73.0041H50.7302V72.8045ZM50.7302 71.4074H59.6178V71.607H50.7302V71.4074Z" fill="#E4E7ED"/>
<path d="M31.2289 29.6928L33.913 34.4594C33.913 34.4594 34.3696 35.2342 35.1048 34.9055C35.8398 34.5885 38.2567 31.9117 44.8499 32.9449C51.4544 33.9781 52.9134 35.7745 53.5927 35.3987C54.2609 35.0112 55.2075 28.2604 55.2075 28.2604L47.044 25.0318C47.044 25.0318 38.4237 23.6113 31.218 29.7046L31.2289 29.6928Z" fill="#F0B97D"/>
<path d="M27.9878 28.2492C32.554 25.1849 37.0647 23.7407 41.553 23.7056C46.0413 23.7407 50.652 25.1849 55.2072 28.2492L52.3116 32.464C48.7254 30.4564 45.1391 29.611 41.553 29.5289C37.9668 29.611 34.3805 30.4564 30.7944 32.464L27.9878 28.2492Z" fill="#6B7F9E"/>
<path d="M52.6237 32.0296L52.3229 32.4639C48.7368 30.4563 45.1505 29.611 41.5644 29.5289C37.9782 29.611 34.3919 30.4563 30.8058 32.4639L30.5273 32.0529C34.2249 30.0454 37.9113 29.0825 41.5644 29.0474C45.2062 29.0709 48.915 30.0336 52.6236 32.0178L52.6237 32.0296Z" fill="#5D718F"/>
</g>
<defs>
<clipPath id="clip0_296_699">
<rect width="82.9278" height="87.4203" fill="white" transform="translate(0 0.23584)"/>
</clipPath>
</defs>
</svg>
