<svg width="84" height="84" viewBox="0 0 84 84" fill="none" xmlns="http://www.w3.org/2000/svg">
<path fill-rule="evenodd" clip-rule="evenodd" d="M75.1414 25.5568C65.9496 24.5964 56.7382 23.6361 47.5464 22.6758C38.3546 21.7154 29.1433 20.7551 19.9515 19.7947C18.3836 19.638 17.4232 20.8531 17.776 22.4994C19.0107 28.0654 20.2651 33.6314 21.4998 39.1779C22.7345 44.7243 23.9888 50.2903 25.2235 55.8563C25.5959 57.5026 26.7914 58.8549 27.8889 58.8549C34.3565 58.8549 40.8437 58.8549 47.3308 58.8549H61.6183V60.9912C61.6183 61.3048 61.3635 61.5596 61.0499 61.5596H30.6524C30.3388 61.5596 30.084 61.8144 30.084 62.1279V63.9898C30.084 64.3034 30.3388 64.5582 30.6524 64.5582H61.6183H64.0485C64.3621 64.5582 64.6169 64.3034 64.6169 63.9898V61.5596V58.8745H66.7727C67.8703 58.8745 69.0854 57.7574 69.4774 56.3659C70.7905 51.7014 72.084 47.0369 73.3971 42.3724C74.6906 37.708 76.0037 33.0435 77.3168 28.379C77.7088 26.9875 76.7485 25.7332 75.1806 25.5764L75.1414 25.5568ZM68.7914 29.3393C68.7326 29.3393 68.6738 29.3197 68.615 29.3197C67.9487 29.2609 67.3411 29.7117 67.2235 30.3388C66.518 34.0626 65.832 37.7864 65.1265 41.5101C64.4209 45.2339 63.735 48.9576 63.049 52.6814C62.9314 53.3085 63.245 53.8181 63.7546 53.8377C63.8133 53.8377 63.8525 53.8377 63.8917 53.8377C64.4013 53.8573 64.9305 53.3477 65.0677 52.7402C65.8516 49.036 66.6356 45.3514 67.4195 41.6473C68.2035 37.9431 68.9874 34.2586 69.7713 30.5544C69.9085 29.9273 69.4578 29.3785 68.811 29.3197L68.7914 29.3393ZM25.5959 25.4392C25.5371 25.4392 25.4783 25.4196 25.4195 25.4196C24.7727 25.3608 24.322 25.8899 24.4592 26.5955C25.2235 30.8484 25.9683 35.0817 26.7326 39.3151C27.497 43.5484 28.2613 47.7817 29.0061 52.0346C29.1433 52.7402 29.6528 53.3281 30.1624 53.3477C30.2016 53.3477 30.2604 53.3477 30.2996 53.3477C30.8091 53.3673 31.1227 52.7794 31.0247 52.0934C30.3584 47.8797 29.6724 43.6856 29.0061 39.4718C28.3397 35.2581 27.6734 31.0444 26.9874 26.8503C26.8698 26.1447 26.2427 25.5176 25.5959 25.4588V25.4392ZM34.1801 25.7136C34.1213 25.7136 34.0625 25.694 34.0037 25.694C33.3374 25.6352 32.867 26.1447 32.9454 26.8307C33.4158 30.966 33.8861 35.1013 34.3565 39.2563C34.8269 43.3916 35.2972 47.5269 35.7676 51.6622C35.846 52.3482 36.336 52.9361 36.8455 52.9361C36.8847 52.9361 36.9435 52.9361 36.9827 52.9361C37.4923 52.9557 37.8647 52.3874 37.8059 51.7014C37.4139 47.6053 37.0415 43.4896 36.6496 39.3934C36.2576 35.2777 35.8852 31.1816 35.4932 27.0659C35.4344 26.3799 34.8465 25.7724 34.1801 25.7136ZM42.8623 26.5367C42.8035 26.5367 42.7448 26.5171 42.686 26.5171C42.0196 26.4583 41.51 26.9483 41.5492 27.6342C41.7256 31.6716 41.902 35.7089 42.0784 39.7462C42.2548 43.7836 42.4312 47.8209 42.6076 51.8386C42.6468 52.505 43.0779 53.0733 43.5875 53.0929C43.6267 53.0929 43.6855 53.0929 43.7247 53.0929C44.2343 53.1125 44.6458 52.5638 44.6262 51.8974C44.5282 47.8993 44.4498 43.9011 44.3518 39.8834C44.2539 35.8853 44.1755 31.8675 44.0775 27.8694C44.0579 27.2031 43.5091 26.6151 42.8623 26.5367ZM51.5446 27.3598C51.4858 27.3598 51.427 27.3402 51.3682 27.3402C50.7018 27.2814 50.1531 27.7518 50.1335 28.4182C50.0159 32.3575 49.9179 36.2773 49.8003 40.2166C49.6827 44.1559 49.5651 48.0757 49.4671 52.015C49.4475 52.6814 49.8591 53.2105 50.3686 53.2301C50.4078 53.2301 50.4666 53.2301 50.5058 53.2301C51.0154 53.2497 51.4662 52.7206 51.4858 52.0738C51.6818 48.1737 51.8973 44.2735 52.0933 40.3734C52.2893 36.4732 52.4853 32.5731 52.6813 28.673C52.7205 28.0262 52.2109 27.4382 51.5642 27.3794L51.5446 27.3598ZM60.2268 28.183C60.168 28.183 60.1092 28.1634 60.0504 28.1634C59.4036 28.1046 58.7961 28.575 58.7373 29.2217C58.3257 33.0631 57.9337 36.8848 57.5222 40.7066C57.1106 44.5479 56.699 48.3696 56.307 52.1914C56.2482 52.8382 56.601 53.3673 57.1106 53.3673C57.1498 53.3673 57.2086 53.3673 57.2478 53.3673C57.7574 53.3869 58.2473 52.8773 58.3257 52.2306C58.8157 48.4284 59.3056 44.6459 59.7956 40.8437C60.2856 37.0416 60.7755 33.2395 61.2655 29.4373C61.3439 28.7905 60.8735 28.2222 60.2268 28.1634V28.183Z" fill="#E4E7ED"/>
<path fill-rule="evenodd" clip-rule="evenodd" d="M76.0234 27.9085L74.0243 34.8269L68.9678 34.3173C69.2226 33.063 69.497 31.8283 69.7518 30.5739C69.889 29.9468 69.4382 29.398 68.7915 29.3392C68.7327 29.3392 68.6739 29.3196 68.6151 29.3196C67.9487 29.2608 67.3411 29.7116 67.2236 30.3388C66.9884 31.5735 66.7532 32.8278 66.518 34.0625L60.7168 33.4941L61.246 29.4568C61.3244 28.8101 60.854 28.2417 60.2072 28.1829C60.1484 28.1829 60.0896 28.1633 60.0308 28.1633C59.3841 28.1045 58.7765 28.5749 58.7177 29.2216C58.5805 30.5739 58.4237 31.9067 58.2866 33.259L52.4657 32.671C52.5245 31.3383 52.6029 30.0056 52.6813 28.6533C52.7205 28.0065 52.211 27.4186 51.5642 27.3598C51.5054 27.3598 51.4466 27.3402 51.3878 27.3402C50.7215 27.2814 50.1727 27.7517 50.1531 28.4181C50.1139 29.7508 50.0747 31.0835 50.0355 32.4162L44.1951 31.8283C44.1559 30.4955 44.1363 29.1628 44.0971 27.8497C44.0775 27.1834 43.5287 26.5954 42.882 26.517C42.8232 26.517 42.7644 26.4974 42.7056 26.4974C42.0392 26.4386 41.5297 26.9286 41.5689 27.6145C41.6277 28.9473 41.6865 30.2604 41.7453 31.5931L35.8852 31.0051C35.7677 29.692 35.6305 28.3789 35.5129 27.0462C35.4541 26.3602 34.8661 25.7527 34.1998 25.6939C34.141 25.6939 34.0822 25.6743 34.0234 25.6743C33.357 25.6155 32.8866 26.125 32.965 26.811C33.1218 28.1241 33.259 29.4372 33.4158 30.7503L27.5558 30.1624C27.3794 29.0452 27.203 27.9281 27.007 26.7914C26.8894 26.0858 26.2623 25.4587 25.6155 25.3999C25.5567 25.3999 25.4979 25.3803 25.4391 25.3803C24.7924 25.3215 24.3416 25.8507 24.4788 26.5562C24.6748 27.6733 24.8708 28.7905 25.0864 29.9076L20.9118 29.496L17.7957 22.4601L76.0234 27.8497V27.9085Z" fill="#C6CBD6"/>
<path fill-rule="evenodd" clip-rule="evenodd" d="M78.2772 24.7336L5.76206 17.776L5.74246 7.72191C5.74246 7.09475 5.23289 6.58519 4.62533 6.56559L2.68506 6.50679C2.05791 6.48719 1.54834 6.97716 1.54834 7.60432L1.58754 20.853C1.58754 21.4802 2.0775 21.9898 2.70466 22.0094H2.78306C2.90065 22.0682 3.01824 22.0878 3.15543 22.1074L77.7285 29.2609C78.3948 29.3197 79.022 28.8297 79.1004 28.1633L79.3552 26.0467C79.4336 25.3803 78.9632 24.7728 78.2772 24.714V24.7336Z" fill="#E4E7ED"/>
<path d="M67.8508 77.4737C75.9147 77.4737 82.4518 70.9366 82.4518 62.8726C82.4518 54.8087 75.9147 48.2716 67.8508 48.2716C59.7869 48.2716 53.2498 54.8087 53.2498 62.8726C53.2498 70.9366 59.7869 77.4737 67.8508 77.4737Z" fill="white"/>
<path fill-rule="evenodd" clip-rule="evenodd" d="M67.8507 49.8199C75.063 49.8199 80.9034 55.6604 80.9034 62.8727C80.9034 70.085 75.063 75.9254 67.8507 75.9254C60.6384 75.9254 54.798 70.085 54.798 62.8727C54.798 55.6604 60.6384 49.8199 67.8507 49.8199Z" fill="#FFE356"/>
<path fill-rule="evenodd" clip-rule="evenodd" d="M67.8507 58.7177C66.3024 55.8366 62.5199 55.6603 60.6188 57.9533C59.1489 59.7368 59.1489 62.7158 61.6967 64.5777C64.5777 66.6943 66.0084 67.3803 67.8507 70.4573C69.7126 67.3803 71.1237 66.6943 74.0047 64.5777C76.5329 62.7354 76.5525 59.7564 75.063 57.9533C73.162 55.6603 69.3794 55.8366 67.8311 58.7177H67.8507Z" fill="#FF7069"/>
</svg>
