<svg width="88" height="88" viewBox="0 0 88 88" fill="none" xmlns="http://www.w3.org/2000/svg">
<path fill-rule="evenodd" clip-rule="evenodd" d="M78.2011 26.8336C68.635 25.8341 59.0486 24.8347 49.4825 23.8352C39.9165 22.8358 30.33 21.8364 20.764 20.8369C19.1322 20.6738 18.1328 21.9384 18.4999 23.6517C19.7849 29.4443 21.0903 35.237 22.3753 41.0093C23.6603 46.7815 24.9657 52.5742 26.2507 58.3669C26.6382 60.0802 27.8824 61.4876 29.0246 61.4876C35.7555 61.4876 42.5069 61.4876 49.2582 61.4876H64.1274V63.7108C64.1274 64.0371 63.8622 64.3023 63.5359 64.3023H31.9006C31.5742 64.3023 31.3091 64.5675 31.3091 64.8938V66.8315C31.3091 67.1578 31.5742 67.423 31.9006 67.423H64.1274H66.6566C66.9829 67.423 67.2481 67.1578 67.2481 66.8315V64.3023V61.508H69.4917C70.6339 61.508 71.8985 60.3453 72.3064 58.8972C73.673 54.0428 75.0192 49.1883 76.3858 44.3339C77.732 39.4795 79.0985 34.6251 80.4651 29.7707C80.8731 28.3225 79.8736 27.0171 78.2419 26.854L78.2011 26.8336ZM71.5926 30.7701C71.5314 30.7701 71.4702 30.7497 71.409 30.7497C70.7155 30.6885 70.0832 31.1577 69.9608 31.8104C69.2265 35.6857 68.5126 39.5611 67.7784 43.4365C67.0441 47.3119 66.3302 51.1872 65.6163 55.0626C65.4939 55.7153 65.8203 56.2456 66.3506 56.266C66.4118 56.266 66.4526 56.266 66.4934 56.266C67.0237 56.2864 67.5744 55.7561 67.7172 55.1238C68.533 51.2688 69.3489 47.4342 70.1648 43.5793C70.9807 39.7243 71.7965 35.8897 72.6124 32.0347C72.7552 31.382 72.286 30.8109 71.6129 30.7497L71.5926 30.7701ZM26.6382 26.7112C26.577 26.7112 26.5158 26.6908 26.4546 26.6908C25.7816 26.6296 25.3124 27.1803 25.4552 27.9146C26.2507 32.3407 27.0258 36.7464 27.8212 41.152C28.6167 45.5577 29.4122 49.9634 30.1872 54.3895C30.33 55.1238 30.8603 55.7357 31.3906 55.7561C31.4314 55.7561 31.4926 55.7561 31.5334 55.7561C32.0637 55.7765 32.3901 55.1646 32.2881 54.4507C31.5946 50.0654 30.8807 45.7005 30.1872 41.3152C29.4938 36.9299 28.8003 32.5446 28.0864 28.1797C27.964 27.4455 27.3113 26.7928 26.6382 26.7316V26.7112ZM35.572 26.9967C35.5108 26.9967 35.4496 26.9763 35.3884 26.9763C34.6949 26.9151 34.2054 27.4455 34.287 28.1593C34.7765 32.4631 35.266 36.7668 35.7555 41.0909C36.2451 45.3946 36.7346 49.6983 37.2241 54.002C37.3057 54.7159 37.8156 55.3278 38.3459 55.3278C38.3867 55.3278 38.4479 55.3278 38.4887 55.3278C39.019 55.3482 39.4066 54.7566 39.3454 54.0428C38.9374 49.7799 38.5499 45.4965 38.142 41.2336C37.734 36.9503 37.3465 32.6874 36.9386 28.4041C36.8774 27.6902 36.2655 27.0579 35.572 26.9967ZM44.6077 27.8534C44.5465 27.8534 44.4853 27.833 44.4241 27.833C43.7307 27.7718 43.2003 28.2817 43.2411 28.9956C43.4247 33.1973 43.6083 37.3991 43.7918 41.6008C43.9754 45.8025 44.159 50.0042 44.3426 54.1855C44.3834 54.879 44.8321 55.4705 45.3624 55.4909C45.4032 55.4909 45.4644 55.4909 45.5052 55.4909C46.0355 55.5113 46.4638 54.9402 46.4434 54.2467C46.3414 50.0858 46.2598 45.9249 46.1579 41.7436C46.0559 37.5826 45.9743 33.4013 45.8723 29.2404C45.8519 28.5469 45.2808 27.935 44.6077 27.8534ZM53.6435 28.7101C53.5823 28.7101 53.5211 28.6897 53.4599 28.6897C52.7664 28.6285 52.1953 29.118 52.1749 29.8115C52.0525 33.9112 51.9505 37.9906 51.8281 42.0903C51.7058 46.19 51.5834 50.2694 51.4814 54.3691C51.461 55.0626 51.8893 55.6133 52.4197 55.6337C52.4604 55.6337 52.5216 55.6337 52.5624 55.6337C53.0927 55.6541 53.5619 55.1034 53.5823 54.4303C53.7862 50.3714 54.0106 46.3124 54.2146 42.2535C54.4185 38.1945 54.6225 34.1356 54.8265 30.0766C54.8673 29.4035 54.3369 28.7916 53.6638 28.7305L53.6435 28.7101ZM62.6792 29.5667C62.618 29.5667 62.5568 29.5463 62.4956 29.5463C61.8225 29.4851 61.1902 29.9747 61.129 30.6477C60.7007 34.6455 60.2928 38.6229 59.8644 42.6002C59.4361 46.598 59.0078 50.5753 58.5999 54.5527C58.5387 55.2258 58.9058 55.7765 59.4361 55.7765C59.4769 55.7765 59.5381 55.7765 59.5789 55.7765C60.1092 55.7969 60.6191 55.2666 60.7007 54.5935C61.2106 50.6365 61.7205 46.7 62.2305 42.743C62.7404 38.786 63.2503 34.8291 63.7602 30.8721C63.8418 30.199 63.3523 29.6075 62.6792 29.5463V29.5667Z" fill="#E4E7ED"/>
<path fill-rule="evenodd" clip-rule="evenodd" d="M79.1189 29.2811L77.0384 36.4812L71.7761 35.9508C72.0412 34.6455 72.3268 33.3605 72.5919 32.0551C72.7347 31.4024 72.2656 30.8313 71.5925 30.7701C71.5313 30.7701 71.4701 30.7497 71.4089 30.7497C70.7154 30.6885 70.0831 31.1576 69.9608 31.8103C69.716 33.0953 69.4712 34.4007 69.2265 35.6857L63.189 35.0942L63.7398 30.8925C63.8213 30.2194 63.3318 29.6279 62.6587 29.5667C62.5975 29.5667 62.5364 29.5463 62.4752 29.5463C61.8021 29.4851 61.1698 29.9746 61.1086 30.6477C60.9658 32.0551 60.8026 33.442 60.6599 34.8494L54.602 34.2375C54.6632 32.8505 54.7448 31.4636 54.8264 30.0562C54.8672 29.3831 54.3369 28.7712 53.6638 28.71C53.6026 28.71 53.5414 28.6896 53.4802 28.6896C52.7867 28.6284 52.2156 29.1179 52.1952 29.8114C52.1544 31.1984 52.1136 32.5854 52.0728 33.9724L45.9946 33.3605C45.9538 31.9735 45.9334 30.5865 45.8926 29.2199C45.8722 28.5264 45.3011 27.9145 44.628 27.833C44.5669 27.833 44.5057 27.8126 44.4445 27.8126C43.751 27.7514 43.2207 28.2613 43.2615 28.9752C43.3227 30.3621 43.3838 31.7287 43.445 33.1157L37.3464 32.5038C37.224 31.1372 37.0813 29.7706 36.9589 28.3837C36.8977 27.6698 36.2858 27.0375 35.5923 26.9763C35.5311 26.9763 35.4699 26.9559 35.4087 26.9559C34.7152 26.8947 34.2257 27.425 34.3073 28.1389C34.4705 29.5055 34.6133 30.8721 34.7764 32.2386L28.6778 31.6267C28.4943 30.4641 28.3107 29.3015 28.1067 28.1185C27.9843 27.3842 27.3316 26.7315 26.6585 26.6703C26.5974 26.6703 26.5362 26.6499 26.475 26.6499C25.8019 26.5888 25.3328 27.1395 25.4755 27.8738C25.6795 29.0364 25.8835 30.199 26.1078 31.3616L21.7633 30.9333L18.5203 23.6108L79.1189 29.2199V29.2811Z" fill="#C6CBD6"/>
<path fill-rule="evenodd" clip-rule="evenodd" d="M81.4644 25.9769L5.99662 18.736L5.97622 8.27251C5.97622 7.61982 5.44591 7.0895 4.81361 7.06911L2.79434 7.00792C2.14164 6.98752 1.61133 7.49744 1.61133 8.15013L1.65212 21.9383C1.65212 22.591 2.16204 23.1213 2.81473 23.1417H2.89632C3.0187 23.2029 3.14108 23.2233 3.28386 23.2437L80.8933 30.6885C81.5868 30.7497 82.2395 30.2398 82.3211 29.5463L82.5862 27.3434C82.6678 26.6499 82.1783 26.0176 81.4644 25.9565V25.9769Z" fill="#E4E7ED"/>
<path d="M70.6135 80.8642C79.0058 80.8642 85.8091 74.061 85.8091 65.6687C85.8091 57.2764 79.0058 50.4731 70.6135 50.4731C62.2212 50.4731 55.418 57.2764 55.418 65.6687C55.418 74.061 62.2212 80.8642 70.6135 80.8642Z" fill="white"/>
<path fill-rule="evenodd" clip-rule="evenodd" d="M70.6135 52.084C78.1195 52.084 84.1977 58.1622 84.1977 65.6682C84.1977 73.1742 78.1195 79.2524 70.6135 79.2524C63.1075 79.2524 57.0293 73.1742 57.0293 65.6682C57.0293 58.1622 63.1075 52.084 70.6135 52.084Z" fill="#FFE356"/>
<path fill-rule="evenodd" clip-rule="evenodd" d="M70.6138 61.3449C69.0025 58.3465 65.0659 58.163 63.0874 60.5494C61.5577 62.4055 61.5577 65.5058 64.2092 67.4435C67.2075 69.6463 68.6965 70.3602 70.6138 73.5625C72.5515 70.3602 74.02 69.6463 77.0184 67.4435C79.6495 65.5262 79.6699 62.4259 78.1198 60.5494C76.1413 58.163 72.2047 58.3465 70.5934 61.3449H70.6138Z" fill="#FF7069"/>
</svg>
