<svg width="60" height="60" viewBox="0 0 60 60" fill="none" xmlns="http://www.w3.org/2000/svg">
<rect opacity="0.2" width="60" height="60" rx="30" fill="#03A89E"/>
<path fill-rule="evenodd" clip-rule="evenodd" d="M33.85 20.0002C34.481 20.0002 35.111 20.0892 35.71 20.2902C39.401 21.4902 40.731 25.5402 39.62 29.0802C38.99 30.8892 37.96 32.5402 36.611 33.8892C34.68 35.7592 32.561 37.4192 30.28 38.8492L30.03 39.0002L29.77 38.8392C27.481 37.4192 25.35 35.7592 23.401 33.8792C22.061 32.5302 21.03 30.8892 20.39 29.0802C19.26 25.5402 20.59 21.4902 24.321 20.2692C24.611 20.1692 24.91 20.0992 25.21 20.0602H25.33C25.611 20.0192 25.89 20.0002 26.17 20.0002H26.28C26.91 20.0192 27.52 20.1292 28.111 20.3302H28.17C28.21 20.3492 28.24 20.3702 28.26 20.3892C28.481 20.4602 28.69 20.5402 28.89 20.6502L29.27 20.8202C29.3618 20.8691 29.4649 20.944 29.554 21.0086C29.6104 21.0496 29.6612 21.0865 29.7 21.1102C29.7163 21.1198 29.7329 21.1295 29.7496 21.1392C29.8354 21.1893 29.9247 21.2414 30 21.2992C31.111 20.4502 32.46 19.9902 33.85 20.0002ZM36.51 27.2002C36.92 27.1892 37.27 26.8602 37.3 26.4392V26.3202C37.33 24.9192 36.481 23.6502 35.19 23.1602C34.78 23.0192 34.33 23.2402 34.18 23.6602C34.04 24.0802 34.26 24.5402 34.68 24.6892C35.321 24.9292 35.75 25.5602 35.75 26.2592V26.2902C35.731 26.5192 35.8 26.7402 35.94 26.9102C36.08 27.0802 36.29 27.1792 36.51 27.2002Z" fill="#F57C54"/>
</svg>
