<svg width="13" height="13" viewBox="0 0 13 13" fill="none" xmlns="http://www.w3.org/2000/svg">
<path d="M12.2983 6.32933C12.2983 7.95721 11.6516 9.51842 10.5006 10.6695C9.34947 11.8206 7.78827 12.4673 6.16039 12.4673C4.53251 12.4673 2.9713 11.8206 1.82022 10.6695C0.669134 9.51842 0.0224609 7.95721 0.0224609 6.32933C0.0224609 4.70145 0.669134 3.14025 1.82022 1.98916C2.9713 0.838079 4.53251 0.191406 6.16039 0.191406C7.78827 0.191406 9.34947 0.838079 10.5006 1.98916C11.6516 3.14025 12.2983 4.70145 12.2983 6.32933ZM6.16039 2.87675C6.16039 2.77501 6.11997 2.67743 6.04803 2.60549C5.97609 2.53355 5.87851 2.49313 5.77677 2.49313C5.67503 2.49313 5.57745 2.53355 5.50551 2.60549C5.43356 2.67743 5.39315 2.77501 5.39315 2.87675V7.09657C5.39317 7.16419 5.41106 7.23061 5.44502 7.28908C5.47897 7.34756 5.52778 7.39602 5.58649 7.42956L8.27184 8.96404C8.35996 9.01167 8.46322 9.02293 8.55954 8.99544C8.65586 8.96794 8.73761 8.90385 8.7873 8.81688C8.837 8.72991 8.85071 8.62695 8.8255 8.53C8.80029 8.43306 8.73816 8.34982 8.65239 8.29807L6.16039 6.87407V2.87675Z" fill="#0D163A"/>
</svg>
