<svg width="43" height="34" viewBox="0 0 43 34" fill="none" xmlns="http://www.w3.org/2000/svg">
<path d="M21.5852 9.76623C16.9879 15.6074 12.1922 23.6317 10.9143 32M21.5852 9.76623C26.1844 15.6025 30.9892 23.6279 32.2771 32M21.5852 9.76623C19.6938 7.36613 17.8373 5.33625 16.2743 3.8047M21.5852 9.76623C23.4715 7.36963 25.3243 5.34054 26.8871 3.80598M10.9143 32H2V14.1854C5.72037 9.17904 11.5876 5.7753 16.2743 3.8047M10.9143 32H32.2771M32.2771 32H41.1584V14.1854C37.4389 9.18012 31.5733 5.77677 26.8871 3.80598M16.2743 3.8047C18.3824 2.91832 20.2516 2.32189 21.5792 2C22.9074 2.32205 24.7778 2.91889 26.8871 3.80598" stroke="white" stroke-width="3"/>
</svg>
