<svg width="720" height="691" viewBox="0 0 720 691" fill="none" xmlns="http://www.w3.org/2000/svg">
<path d="M416.906 93.4771H538.423V273.239H416.906V93.4771Z" fill="#8CC8D1"/>
<path d="M574.024 93.4771H538.423V273.239H618.237V137.69C618.237 125.964 613.579 114.718 605.287 106.427C596.996 98.1352 585.75 93.4771 574.024 93.4771Z" fill="#8CC8D1"/>
<path d="M580.487 238.007C570.745 238.007 562.847 229.375 562.847 218.728C562.847 208.08 570.745 199.449 580.487 199.449C590.229 199.449 598.127 208.08 598.127 218.728C598.127 229.375 590.229 238.007 580.487 238.007Z" fill="#FBF4E6"/>
<path d="M555.679 219.144H605.296C605.297 224.071 603.831 228.888 601.083 232.978C598.335 237.069 594.43 240.248 589.868 242.109V248.384H571.106V242.109C566.544 240.248 562.639 237.069 559.891 232.978C557.143 228.888 555.677 224.071 555.679 219.144Z" fill="#6B3E74"/>
<path d="M619.155 170.985L539.937 138.828" stroke="#6B3E74" stroke-width="4" stroke-miterlimit="10" stroke-linecap="round"/>
<path d="M539.858 93.4771V273.239" stroke="#6B3E74" stroke-width="4" stroke-miterlimit="10"/>
<path d="M93.3358 565.169V496.147L135.039 453.723H252.242L293.945 496.147V560.141H439.91V533.529C486.649 528.493 472.272 493.983 498.155 493.983H544.172C547.526 493.97 550.812 494.923 553.639 496.728L618.606 456.578H685.47L769.237 508.344H769.057V573.522L825.317 608.292V667.972H51.6328V607.578L93.3358 565.169Z" fill="#FBF4E6"/>
<path d="M23.5849 667.988H68.8882C68.8882 655.485 58.7467 642.826 46.2366 642.826C33.7264 642.826 23.5849 655.485 23.5849 667.988Z" fill="#8CC8D1"/>
<path d="M-0.00012207 667.988H33.6558C33.6558 658.701 26.1183 649.297 16.8318 649.297C7.54526 649.297 -0.00012207 658.701 -0.00012207 667.988Z" fill="#8CC8D1"/>
<path d="M661.14 366.018C639.179 359.218 610.943 349.445 525.019 419.714C439.095 489.983 406.584 444.028 415.376 433.408C422.435 424.859 461.856 447.926 432.514 479.025C404.631 508.595 322.911 480.312 300.502 462.209C268.611 436.452 222.955 416.192 182.711 414.733" stroke="#8CC8D1" stroke-width="4" stroke-linecap="round" stroke-linejoin="round" stroke-dasharray="12 12"/>
<path d="M601.696 508.36L685.47 456.593" stroke="#8CC8D1" stroke-width="4" stroke-linecap="round" stroke-linejoin="round"/>
<path d="M768.273 508.359H601.515V667.203" stroke="#8CC8D1" stroke-width="4" stroke-linecap="round" stroke-linejoin="round"/>
<path d="M770.312 597.162H602.778" stroke="#8CC8D1" stroke-width="4" stroke-linecap="round" stroke-linejoin="round"/>
<path d="M295.75 620.896H177.103" stroke="#8CC8D1" stroke-width="4" stroke-linecap="round" stroke-linejoin="round"/>
<path d="M601.695 508.359H562.604" stroke="#8CC8D1" stroke-width="4" stroke-linecap="round" stroke-linejoin="round"/>
<path d="M293.161 496.14H176.742V667.203" stroke="#8CC8D1" stroke-width="4" stroke-linecap="round" stroke-linejoin="round"/>
<path d="M176.742 666.419V496.14H94.9046" stroke="#8CC8D1" stroke-width="4" stroke-linecap="round" stroke-linejoin="round"/>
<path d="M485.214 534.964H440.695" stroke="#8CC8D1" stroke-width="4" stroke-linecap="round" stroke-linejoin="round"/>
<path d="M135.039 667.203V607.594H52.8642" stroke="#8CC8D1" stroke-width="4" stroke-linecap="round" stroke-linejoin="round"/>
<path d="M135.494 454.178L176.742 496.14" stroke="#8CC8D1" stroke-width="4" stroke-linecap="round" stroke-linejoin="round"/>
<path d="M176.742 565.169L135.039 607.594" stroke="#8CC8D1" stroke-width="4" stroke-linecap="round" stroke-linejoin="round"/>
<path d="M94.5438 563.373H176.381" stroke="#8CC8D1" stroke-width="4" stroke-linecap="round" stroke-linejoin="round"/>
<path d="M543.294 495.418C569.177 495.418 554.8 529.929 601.539 534.964H485.033C531.795 529.937 517.411 495.418 543.294 495.418Z" stroke="#8CC8D1" stroke-width="4" stroke-linecap="round" stroke-linejoin="round"/>
<path d="M601.539 666.419V534.972H485.057V667.203" stroke="#8CC8D1" stroke-width="4" stroke-linecap="round" stroke-linejoin="round"/>
<path d="M485.214 666.419V573.075H295.742V667.203" stroke="#8CC8D1" stroke-width="4" stroke-linecap="round" stroke-linejoin="round"/>
<path d="M484.876 571.318L441.111 558.69" stroke="#8CC8D1" stroke-width="4" stroke-linecap="round" stroke-linejoin="round"/>
<path d="M295.742 560.918V573.075H485.214" stroke="#8CC8D1" stroke-width="4" stroke-linecap="round" stroke-linejoin="round"/>
<path d="M447.573 594.652H447.385C443.982 594.652 440.718 596.004 438.312 598.41C435.905 600.817 434.553 604.081 434.553 607.484V667.995H460.437V607.484C460.437 605.796 460.104 604.125 459.457 602.566C458.81 601.007 457.862 599.591 456.667 598.399C455.472 597.207 454.054 596.263 452.494 595.62C450.933 594.977 449.261 594.648 447.573 594.652Z" fill="#8CC8D1"/>
<path d="M331.805 594.652H331.586C328.183 594.652 324.919 596.004 322.512 598.41C320.106 600.817 318.754 604.081 318.754 607.484V667.995H344.637V607.484C344.637 604.081 343.285 600.817 340.879 598.41C338.472 596.004 335.209 594.652 331.805 594.652Z" fill="#8CC8D1"/>
<path d="M389.689 594.652H389.47C386.067 594.652 382.803 596.004 380.396 598.41C377.99 600.817 376.638 604.081 376.638 607.484V667.995H402.521V607.484C402.521 604.081 401.169 600.817 398.763 598.41C396.356 596.004 393.093 594.652 389.689 594.652Z" fill="#8CC8D1"/>
<path d="M92.0025 624.127H91.7829C88.3797 624.127 85.1159 625.479 82.7095 627.886C80.3031 630.292 78.9511 633.556 78.9511 636.959V667.987H104.834V636.959C104.834 633.556 103.482 630.292 101.076 627.886C98.6695 625.479 95.4057 624.127 92.0025 624.127Z" fill="#8CC8D1"/>
<path d="M636.143 624.127H635.924C634.237 624.125 632.567 624.456 631.009 625.1C629.45 625.744 628.033 626.688 626.84 627.88C625.647 629.072 624.7 630.487 624.055 632.045C623.409 633.603 623.076 635.273 623.076 636.959V667.988H648.959V636.959C648.959 633.559 647.61 630.297 645.207 627.891C642.804 625.485 639.544 624.132 636.143 624.127Z" fill="#8CC8D1"/>
<path d="M685.4 624.127H685.18C681.777 624.127 678.513 625.479 676.107 627.886C673.7 630.292 672.348 633.556 672.348 636.959V667.987H698.231V636.959C698.231 633.556 696.88 630.292 694.473 627.886C692.067 625.479 688.803 624.127 685.4 624.127Z" fill="#8CC8D1"/>
<path d="M623.092 531.372H648.975V575.232H623.092V531.372Z" fill="#8CC8D1"/>
<path d="M672.348 531.372H698.231V575.232H672.348V531.372Z" fill="#8CC8D1"/>
<path d="M553.012 557.255H574.518V589.609H553.012V557.255Z" fill="#8CC8D1"/>
<path d="M512.085 557.255H533.591V589.609H512.085V557.255Z" fill="#8CC8D1"/>
<path d="M553.012 614.064H574.518V646.418H553.012V614.064Z" fill="#8CC8D1"/>
<path d="M512.085 614.064H533.591V646.418H512.085V614.064Z" fill="#8CC8D1"/>
<path d="M245.975 514.116H267.482V546.47H245.975V514.116Z" fill="#8CC8D1"/>
<path d="M205.049 514.116H226.555V546.47H205.049V514.116Z" fill="#8CC8D1"/>
<path d="M122.356 514.116H143.863V546.47H122.356V514.116Z" fill="#8CC8D1"/>
<path d="M245.975 570.918H267.482V603.272H245.975V570.918Z" fill="#8CC8D1"/>
<path d="M205.049 570.918H226.555V603.272H205.049V570.918Z" fill="#8CC8D1"/>
<path d="M657.062 325.366C657.062 341.547 674.317 360.238 681.156 360.238C687.996 360.238 705.243 341.547 705.243 325.366C705.129 319.052 702.541 313.035 698.036 308.61C693.53 304.185 687.468 301.706 681.153 301.706C674.837 301.706 668.775 304.185 664.269 308.61C659.764 313.035 657.176 319.052 657.062 325.366Z" fill="#8CC8D1"/>
<path d="M681.156 332.919C676.985 332.919 673.603 329.538 673.603 325.366C673.603 321.195 676.985 317.813 681.156 317.813C685.328 317.813 688.709 321.195 688.709 325.366C688.709 329.538 685.328 332.919 681.156 332.919Z" fill="#FBF4E6"/>
<path d="M130.725 378.505C130.725 394.686 147.981 413.376 154.812 413.376C161.644 413.376 178.899 394.686 178.899 378.505C178.899 372.117 176.361 365.99 171.844 361.473C167.327 356.956 161.2 354.418 154.812 354.418C148.424 354.418 142.297 356.956 137.78 361.473C133.263 365.99 130.725 372.117 130.725 378.505Z" fill="#8CC8D1"/>
<path d="M154.812 386.058C150.641 386.058 147.259 382.676 147.259 378.505C147.259 374.333 150.641 370.952 154.812 370.952C158.984 370.952 162.365 374.333 162.365 378.505C162.365 382.676 158.984 386.058 154.812 386.058Z" fill="#FBF4E6"/>
<path d="M460.884 222.751C516.705 256.878 536.117 351.939 547.945 386.623C560.737 424.13 588.911 423.275 621.602 434.193C654.293 445.111 653.077 468.915 653.077 468.915C660.718 474.121 668.02 479.808 674.937 485.943L633.547 538.839C623.782 532.101 609.288 523.654 589.405 511.646C548.337 486.837 511.575 463.543 487.849 437.66C464.123 411.776 401.768 298.283 401.768 298.283L460.884 222.751Z" fill="#6B3E74"/>
<path d="M633.547 538.839L674.945 485.951C693.455 502.422 704.545 518.109 710.122 527.239L651.76 601.798C643.54 586.895 650.073 565.922 649.407 556.769C648.96 551.255 643.955 546.023 633.547 538.839Z" fill="#30242A"/>
<path d="M714.656 535.458L657.273 608.77C655.065 606.774 653.208 604.419 651.783 601.805L710.138 527.246C711.791 529.9 713.299 532.642 714.656 535.458Z" fill="#A495DA"/>
<path d="M654.771 541.976L643.657 548.164" stroke="white" stroke-width="4" stroke-linecap="round" stroke-linejoin="round"/>
<path d="M659.72 553.161L648.583 555.686" stroke="white" stroke-width="4" stroke-linecap="round" stroke-linejoin="round"/>
<path d="M639.845 489.99L659.673 505.489" stroke="#A495DA" stroke-width="4" stroke-miterlimit="10" stroke-linecap="round"/>
<path d="M649.885 477.151L669.713 492.649" stroke="#A495DA" stroke-width="4" stroke-miterlimit="10" stroke-linecap="round"/>
<path d="M629.806 502.83L649.634 518.328" stroke="#A495DA" stroke-width="4" stroke-miterlimit="10" stroke-linecap="round"/>
<path d="M619.766 515.669L639.594 531.168" stroke="#A495DA" stroke-width="4" stroke-miterlimit="10" stroke-linecap="round"/>
<path d="M654.873 469.598L611.366 525.254" stroke="#A495DA" stroke-width="4" stroke-miterlimit="10" stroke-linecap="round"/>
<path d="M443.605 370.583C453.056 355.681 462.303 339.21 469.331 322.213" stroke="#30242A" stroke-width="4" stroke-linecap="round" stroke-linejoin="round"/>
<path d="M428.051 13.6631C424.278 13.6631 421.22 10.6045 421.22 6.83157C421.22 3.0586 424.278 0 428.051 0C431.824 0 434.883 3.0586 434.883 6.83157C434.883 10.6045 431.824 13.6631 428.051 13.6631Z" fill="#6B3E74"/>
<path d="M406.364 106.419L406.835 98.4811C397.698 99.6263 390.929 98.2694 386.089 95.7909L406.835 79.0924C406.835 79.0924 399.651 76.2217 403.964 61.1154L380.874 52.723C382.089 49.5856 382.897 42.0246 385.227 33.8989L398.976 39.8834C402.186 46.0433 406.789 51.3689 412.42 55.4368C414.745 53.0312 417.343 50.9044 420.161 49.0994C420.537 48.8562 420.945 48.6288 421.322 48.4013H421.361C421.745 48.1817 422.145 47.9699 422.53 47.766H422.592C422.985 47.5699 423.377 47.3738 423.777 47.2013L423.855 47.0601C424.239 46.8797 424.639 46.7228 425.04 46.5659H425.149C425.549 46.4248 425.934 46.2914 426.341 46.1659H426.475C426.867 46.0483 427.259 45.9463 427.667 45.86H427.808C428.208 45.7738 428.593 45.711 429 45.664H429.157C429.549 45.6247 429.942 45.6012 430.342 45.5934C433.769 45.5463 437.165 46.9424 439.997 50.9033C441.687 53.1998 442.604 55.9737 442.616 58.8251C442.562 67.2567 434.718 75.2962 427.714 77.6492C433.251 89.3279 451.142 96.6144 458.005 99.038C457.786 101.713 457.574 104.199 457.386 106.419H406.364Z" fill="#EAA58B"/>
<path d="M266.8 154.593C270.047 154.593 271.615 151.957 270.306 148.71L259.325 121.596L259.411 121.517L259.223 121.337C256.188 118.485 253.362 115.418 250.768 112.16C245.811 105.846 244.321 101.258 246.062 99.3832C246.561 98.8798 247.222 98.5687 247.929 98.5048C248.647 98.4179 249.374 98.4604 250.078 98.6303C255.678 99.8538 265.27 107.485 275.961 120.074C288.894 135.282 314.048 165.377 314.048 165.377C316.668 163.377 320.472 159.989 325.029 155.902L361.218 202.429C353.463 208.465 345.184 213.797 336.48 218.359C334.838 213.276 331.704 208.805 327.485 205.528C323.267 202.251 318.16 200.319 312.828 199.985C307.497 199.651 302.189 200.929 297.594 203.654C292.999 206.378 289.331 210.423 287.067 215.261C265.262 198.97 248.038 169.903 239.968 154.593H266.8Z" fill="#EAA58B"/>
<path d="M386.701 116.482H397.76C376.669 129.188 385.995 153.157 385.995 153.157C385.995 153.157 357.187 173.291 376.638 197.739C375.21 196.237 374.001 194.542 373.046 192.703C373.046 192.703 368.403 196.97 361.281 202.429L325.092 155.902C341.9 140.906 369.187 116.482 386.701 116.482Z" fill="#A495DA"/>
<path d="M497.434 155.298C497.434 155.298 518.611 172.954 504.297 196.594L496.759 154.24L497.434 155.298Z" fill="#FF7235"/>
<path d="M457.417 106.419V106.678L456.507 106.419H457.417Z" fill="#FF7235"/>
<path d="M427.777 77.6493C434.75 75.2963 442.593 67.2803 442.679 58.8252L460.648 66.6686C459.95 76.5669 458.938 89.0457 458.099 99.0381C451.174 96.6145 433.267 89.328 427.777 77.6493Z" fill="#30242A"/>
<path d="M406.835 79.0924L386.089 95.7909C381.98 93.8106 378.724 90.4125 376.92 86.222C373.861 78.5669 375.838 71.9785 378.222 63.4292C378.222 63.4292 372.144 59.3585 373.093 55.5859C373.877 52.5191 380.803 52.9427 380.803 52.9427L380.873 52.7466L403.964 61.139C399.65 76.2218 406.835 79.0924 406.835 79.0924Z" fill="#30242A"/>
<path d="M412.419 55.4213C406.789 51.3535 402.186 46.0278 398.976 39.8679L420.153 49.0839C417.338 50.8895 414.743 53.0162 412.419 55.4213Z" fill="#30242A"/>
<path d="M423.776 47.131L423.855 47.0601L423.776 47.131Z" fill="#4756DF"/>
<path d="M440.012 50.8251C437.181 46.8642 433.785 45.4681 430.357 45.5151H430.436C432.404 23.7498 427.549 11.9142 423.949 6.29834C427.401 6.80813 430.81 7.57899 434.146 8.60429C459.095 16.1574 461.958 40.7621 461.26 55.3978C461.127 58.3312 460.876 62.2372 460.57 66.6452L442.601 58.8018C442.61 55.9351 441.703 53.1405 440.012 50.8251Z" fill="#6B3E74"/>
<path d="M421.361 48.3621C421.745 48.1425 422.145 47.9307 422.53 47.7268C422.13 47.9307 421.745 48.1425 421.361 48.3621Z" fill="#3EC1F3"/>
<path d="M420.161 49.0838C420.537 48.8407 420.945 48.6132 421.322 48.3857C420.929 48.6289 420.537 48.8407 420.161 49.0838Z" fill="#3EC1F3"/>
<path d="M426.49 46.1267C426.883 46.009 427.275 45.9071 427.683 45.8208C427.283 45.9071 426.883 46.009 426.49 46.1267Z" fill="#3EC1F3"/>
<path d="M422.592 47.6956C422.984 47.4995 423.377 47.3034 423.777 47.1309C423.377 47.3034 422.984 47.4995 422.592 47.6956Z" fill="#3EC1F3"/>
<path d="M429.173 45.5855C429.565 45.5463 429.957 45.5228 430.357 45.5149C429.965 45.4914 429.565 45.5463 429.173 45.5855Z" fill="#3EC1F3"/>
<path d="M427.824 45.7974C428.224 45.7111 428.608 45.6484 429.016 45.6013C428.616 45.6484 428.224 45.7111 427.824 45.7974Z" fill="#3EC1F3"/>
<path d="M425.165 46.5582C425.565 46.417 425.949 46.2837 426.357 46.1582C425.957 46.2759 425.565 46.417 425.165 46.5582Z" fill="#3EC1F3"/>
<path d="M423.855 47.0603C424.239 46.8799 424.639 46.723 425.039 46.5662C424.639 46.7544 424.255 46.9113 423.855 47.0603Z" fill="#3EC1F3"/>
<path d="M430.436 45.4914H430.357C429.965 45.4914 429.573 45.4914 429.173 45.562H429.016C428.616 45.6091 428.232 45.6718 427.824 45.7581H427.683C427.283 45.8444 426.898 45.9463 426.49 46.064H426.357C425.957 46.1895 425.573 46.3228 425.165 46.464H425.055C424.655 46.6209 424.271 46.7777 423.871 46.9581L423.777 46.9973C423.377 47.1699 422.992 47.366 422.592 47.562H422.529C422.129 47.766 421.745 47.9777 421.361 48.1974H421.322C420.929 48.4248 420.537 48.6523 420.161 48.8954L398.984 39.6795L385.234 33.695C389.431 19.0593 398.568 2.52549 423.957 6.13343C427.549 11.9061 432.404 23.7418 430.436 45.4914Z" fill="#A495DA"/>
<path d="M311.209 199.896C316.841 199.898 322.327 201.686 326.878 205.004C331.429 208.322 334.81 212.998 336.535 218.359C324.989 224.226 312.777 227.834 303.295 224.344C297.486 222.108 292.029 219.049 287.09 215.261C289.23 210.669 292.636 206.783 296.909 204.061C301.181 201.339 306.143 199.894 311.209 199.896Z" fill="#CA7358"/>
<path d="M383.07 244.117C357.187 227.214 375.226 198.437 376.638 197.739C357.226 173.291 385.987 153.157 385.987 153.157C385.987 153.157 376.669 129.188 397.752 116.482H405.768L406.364 106.419H456.484L457.393 106.678L456.546 116.482H472.719L496.759 154.248L504.297 196.602L503.912 197.237C504.169 197.713 504.43 198.191 504.697 198.672C509.56 208.241 510.273 216.383 509.026 222.987C506.43 236.799 495.308 244.078 495.308 244.078H383.07V244.117Z" fill="#F57C54"/>
<path d="M495.277 256.721H383.109V246.634V244.117H495.277V246.634V256.721Z" fill="#30242A"/>
<path d="M506.995 153.157H385.987" stroke="#A15842" stroke-width="4" stroke-miterlimit="10" stroke-linecap="round"/>
<path d="M504.108 197.739H376.011" stroke="#A15842" stroke-width="4" stroke-miterlimit="10" stroke-linecap="round"/>
<path d="M403.964 121.517L404.231 117.266" stroke="#A15842" stroke-width="4" stroke-miterlimit="10" stroke-linecap="round"/>
<path d="M417.627 119.36L418.341 107.854" stroke="#A15842" stroke-width="4" stroke-miterlimit="10" stroke-linecap="round"/>
<path d="M428.412 119.36L429.126 107.854" stroke="#A15842" stroke-width="4" stroke-miterlimit="10" stroke-linecap="round"/>
<path d="M439.197 119.36L439.91 107.854" stroke="#A15842" stroke-width="4" stroke-miterlimit="10" stroke-linecap="round"/>
<path d="M315.554 164.773L324.15 175.448" stroke="#A15842" stroke-width="4" stroke-linecap="round" stroke-linejoin="round"/>
<path d="M416.906 97.791C413.726 98.9031 410.433 99.6581 407.086 100.042" stroke="#A15842" stroke-width="4" stroke-miterlimit="10" stroke-linecap="round"/>
<path d="M250.768 112.16C250.729 114.27 249.199 115.76 246.791 115.76H223.332C220.085 115.76 216.383 113.125 215.065 109.87L207.912 92.1594C206.602 88.9122 208.171 86.2769 211.418 86.2769H234.885C238.132 86.2769 241.834 88.9122 243.144 92.1594L246.062 99.3831C244.321 101.266 245.811 105.885 250.768 112.16Z" fill="#FBF4E6"/>
<path d="M202.461 74.7786H208.798L209.355 76.1512C209.795 77.1729 210.506 78.0545 211.412 78.7002C212.318 79.346 213.383 79.7312 214.492 79.814H226.587C228.602 79.814 229.583 78.1747 228.767 76.1512L228.21 74.7786H234.548C237.803 74.7786 241.497 77.4139 242.815 80.6689L250.078 98.6381C249.374 98.4682 248.647 98.4257 247.928 98.5126C247.222 98.5765 246.561 98.8876 246.062 99.391L243.144 92.1673C241.834 88.9202 238.132 86.2848 234.885 86.2848H211.418C208.171 86.2848 206.602 88.9202 207.912 92.1673L215.065 109.878C216.383 113.133 220.085 115.768 223.332 115.768H246.791C249.23 115.768 250.713 114.278 250.768 112.168C253.37 115.424 256.204 118.488 259.246 121.337L259.348 121.596L270.329 148.71C271.639 151.957 270.07 154.593 266.823 154.593H234.728C231.481 154.593 227.779 151.957 226.469 148.71L199.017 80.6689C197.637 77.4139 199.206 74.7786 202.461 74.7786ZM233.834 143.8C234.262 144.793 234.954 145.651 235.834 146.279C236.708 146.957 237.772 147.347 238.877 147.392H256.791C258.784 147.392 259.741 145.785 258.941 143.8C258.505 142.798 257.805 141.934 256.915 141.301C256.025 140.668 254.979 140.29 253.889 140.208H235.912C233.967 140.216 233.01 141.824 233.81 143.808L233.834 143.8Z" fill="#6B3E74"/>
<path d="M235.952 140.216H253.929C255.018 140.298 256.064 140.676 256.954 141.309C257.844 141.942 258.544 142.806 258.98 143.808C259.764 145.792 258.823 147.4 256.831 147.4H238.854C237.748 147.355 236.684 146.965 235.81 146.287C234.93 145.659 234.238 144.801 233.81 143.808C233.01 141.824 233.967 140.216 235.952 140.216Z" fill="#A495DA"/>
<path d="M226.587 79.814H214.492C213.383 79.7312 212.318 79.346 211.412 78.7002C210.506 78.0545 209.795 77.1729 209.355 76.1512L208.798 74.7786H228.21L228.767 76.1512C229.583 78.1747 228.602 79.814 226.587 79.814Z" fill="#A495DA"/>
<path d="M367.289 27.3264L415.463 48.8957" stroke="#30242A" stroke-width="4" stroke-linecap="round" stroke-linejoin="round"/>
<path d="M382.764 72.3159C384.207 72.7002 388.929 71.908 389.705 67.853" stroke="black" stroke-width="4" stroke-miterlimit="10" stroke-linecap="round"/>
<path d="M390.191 51.8054C388.909 51.8054 387.87 50.7659 387.87 49.4837C387.87 48.2015 388.909 47.1621 390.191 47.1621C391.474 47.1621 392.513 48.2015 392.513 49.4837C392.513 50.7659 391.474 51.8054 390.191 51.8054Z" fill="#30242A"/>
<path d="M430.043 60.0173L421.612 65.3822" stroke="#A15842" stroke-width="4" stroke-miterlimit="10" stroke-linecap="round"/>
<path d="M411.87 53.9309L402.521 61.1154" stroke="#30242A" stroke-width="4" stroke-linecap="round" stroke-linejoin="round"/>
<path d="M429.847 78.3787L404.678 79.0924" stroke="#30242A" stroke-width="4" stroke-linecap="round" stroke-linejoin="round"/>
<path d="M332.088 246.634C329.228 246.634 326.484 247.771 324.462 249.793C322.439 251.816 321.303 254.559 321.303 257.419V257.419C321.299 258.838 321.575 260.244 322.115 261.557C322.655 262.869 323.449 264.063 324.45 265.068C325.452 266.073 326.642 266.871 327.953 267.416C329.263 267.961 330.668 268.242 332.088 268.243" stroke="#FF7235" stroke-width="4" stroke-miterlimit="10"/>
<path d="M316.958 246.634C314.103 246.643 311.368 247.783 309.352 249.804C307.337 251.826 306.205 254.564 306.205 257.419C306.196 260.28 307.324 263.027 309.341 265.057C311.357 267.087 314.097 268.232 316.958 268.243" stroke="#FF7235" stroke-width="4" stroke-miterlimit="10"/>
<path d="M239.222 248.07H358.018C363.138 248.07 367.289 252.221 367.289 257.341V257.498C367.289 262.618 363.138 266.768 358.018 266.768H239.222C234.102 266.768 229.952 262.618 229.952 257.498V257.341C229.952 252.221 234.102 248.07 239.222 248.07Z" fill="#30242A"/>
<path d="M219.299 646.613L290.851 248.542L309.255 251.85L237.702 649.921L219.299 646.613Z" fill="#30242A"/>
<path d="M357.861 248.07H358.018C363.138 248.07 367.289 252.221 367.289 257.341V257.498C367.289 262.618 363.138 266.768 358.018 266.768H357.861C352.741 266.768 348.59 262.618 348.59 257.498V257.341C348.59 252.221 352.741 248.07 357.861 248.07Z" stroke="#F57C54" stroke-width="4" stroke-miterlimit="10"/>
<path d="M268.117 247.223C266 247.959 264.165 249.336 262.866 251.164C261.567 252.991 260.87 255.177 260.87 257.419V257.419C260.871 259.514 261.481 261.564 262.628 263.317C263.774 265.071 265.406 266.453 267.325 267.294" stroke="#F57C54" stroke-width="4" stroke-miterlimit="10" stroke-linecap="round"/>
<path d="M255.568 247.223C253.451 247.959 251.615 249.336 250.316 251.164C249.018 252.991 248.32 255.177 248.321 257.419V257.419C248.321 259.514 248.932 261.564 250.078 263.317C251.225 265.071 252.857 266.453 254.776 267.294" stroke="#F57C54" stroke-width="4" stroke-miterlimit="10" stroke-linecap="round"/>
<path d="M228.516 649.297H490.963V667.995H228.516V649.297Z" fill="#30242A"/>
<path d="M474.79 691C462.08 691 451.777 680.697 451.777 667.988C451.777 655.278 462.08 644.975 474.79 644.975C487.499 644.975 497.802 655.278 497.802 667.988C497.802 680.697 487.499 691 474.79 691Z" fill="#30242A"/>
<path d="M474.79 676.615C470.025 676.615 466.162 672.752 466.162 667.987C466.162 663.222 470.025 659.36 474.79 659.36C479.555 659.36 483.418 663.222 483.418 667.987C483.418 672.752 479.555 676.615 474.79 676.615Z" fill="#A495DA"/>
<path d="M224.438 691C211.728 691 201.425 680.697 201.425 667.988C201.425 655.278 211.728 644.975 224.438 644.975C237.147 644.975 247.45 655.278 247.45 667.988C247.45 680.697 237.147 691 224.438 691Z" fill="#30242A"/>
<path d="M224.438 676.615C219.673 676.615 215.81 672.752 215.81 667.987C215.81 663.222 219.673 659.36 224.438 659.36C229.203 659.36 233.065 663.222 233.065 667.987C233.065 672.752 229.203 676.615 224.438 676.615Z" fill="#A495DA"/>
<path d="M438.836 667.988H510.736C510.596 658.545 506.748 649.536 500.021 642.908C493.294 636.28 484.23 632.565 474.786 632.565C465.342 632.565 456.278 636.28 449.551 642.908C442.824 649.536 438.975 658.545 438.836 667.988Z" fill="#F57C54"/>
<path d="M188.492 667.988H260.392C260.252 658.545 256.403 649.536 249.676 642.908C242.95 636.28 233.885 632.565 224.442 632.565C214.998 632.565 205.934 636.28 199.207 642.908C192.48 649.536 188.631 658.545 188.492 667.988Z" fill="#F57C54"/>
<path d="M403.745 586.738H336.496C335.711 574.973 333.484 558.549 330.747 535.992C324.974 488.359 320.644 445.056 326.417 410.42C332.19 375.783 383.109 256.69 383.109 256.69H479.01C486.539 321.672 423.651 395.564 403.635 426.255C381.987 459.456 400.027 481.104 411.572 513.575C423.118 546.047 403.635 559.765 403.635 559.765C404.232 568.745 404.269 577.754 403.745 586.738Z" fill="#6B3E74"/>
<path d="M392.874 640.669H298.189C304.879 624.982 325.397 617.225 332.19 611.045C336.37 607.249 337.343 599.844 336.496 586.73H403.745C402.278 611.829 396.686 630.52 392.874 640.669Z" fill="#30242A"/>
<path d="M389.203 649.297H296.102C296.304 646.324 297.01 643.406 298.189 640.669H392.874C391.807 643.609 390.581 646.489 389.203 649.297Z" fill="#A495DA"/>
<path d="M377.595 562.29V585.899" stroke="#A495DA" stroke-width="4" stroke-miterlimit="10" stroke-linecap="round"/>
<path d="M393.893 562.29V585.899" stroke="#A495DA" stroke-width="4" stroke-miterlimit="10" stroke-linecap="round"/>
<path d="M361.296 562.29V585.899" stroke="#A495DA" stroke-width="4" stroke-miterlimit="10" stroke-linecap="round"/>
<path d="M344.998 562.29V585.899" stroke="#A495DA" stroke-width="4" stroke-miterlimit="10" stroke-linecap="round"/>
<path d="M403.462 561.569H334.441" stroke="#A495DA" stroke-width="4" stroke-miterlimit="10" stroke-linecap="round"/>
<path d="M360.128 312.511C362.481 306.691 364.724 301.06 366.881 295.765L402.176 289.569V289.694C402.873 293.664 401.965 297.749 399.652 301.049C397.338 304.35 393.808 306.597 389.838 307.295L360.128 312.511Z" fill="#A495DA"/>
<path d="M347.155 606.151L336.009 601.586" stroke="white" stroke-width="4" stroke-linecap="round" stroke-linejoin="round"/>
<path d="M341.398 616.943L332.088 609.429" stroke="white" stroke-width="4" stroke-linecap="round" stroke-linejoin="round"/>
<path d="M225.638 146.671C225.638 146.671 213.292 147.157 212.304 136.372C212.304 136.372 203.488 132.317 205.794 124.262C205.794 124.262 197.731 121.956 200.037 113.893C200.186 113.384 195.456 112.466 195.692 105.823C196.037 96.1282 202.61 89.1476 205.48 88.426C214.108 86.2691 210.83 100.285 211.237 99.9322C216.265 95.6183 223.606 93.6575 226.226 95.8536C230.791 99.6812 227.622 104.795 227.622 104.795C227.622 104.795 233.473 103.415 236.336 107.642C239.819 112.772 233.591 117.556 233.591 117.556C233.591 117.556 240.117 118.286 239.026 124.325C237.818 131.078 227.677 132.584 222.869 139.659L225.638 146.671Z" fill="#EAA58B"/>
<path d="M233.858 116.317C226.987 118.897 215.034 124.615 211.637 134.051" stroke="#A15842" stroke-width="4" stroke-linecap="round" stroke-linejoin="round"/>
<path d="M226.155 104.317C220.273 107.525 209.88 114.113 205.198 122.709" stroke="#A15842" stroke-width="4" stroke-linecap="round" stroke-linejoin="round"/>
<path d="M210.124 98.8264C206.257 102.262 202.061 106.834 199.496 112.16" stroke="#A15842" stroke-width="4" stroke-linecap="round" stroke-linejoin="round"/>
<path d="M456.452 116.482C456.452 116.482 430.679 155.298 437.754 192.703C442.789 219.308 503.191 242.36 538.423 250.203V229.371C538.423 229.371 465.08 211.402 456.452 179.04C451.221 159.432 472.272 116.482 472.272 116.482" fill="#FBF4E6"/>
<path d="M286.039 242.36C290.353 231.567 304.016 220.069 319.836 214.312C350.237 203.261 424.098 219.347 424.098 219.347L435.165 195.715L489.622 222.383C481.778 237.685 472.366 250.548 462.75 259.443C459.476 255.389 455.083 252.386 450.117 250.808C445.15 249.23 439.83 249.146 434.816 250.566C429.803 251.987 425.317 254.849 421.916 258.798C418.516 262.747 416.351 267.607 415.69 272.776C385.579 270.423 352.277 256.658 342.833 248.164C342.833 248.164 337.084 253.199 330.613 253.913C330.613 256.07 340.676 284.832 322.699 278.361C322.699 278.361 317.672 284.832 310.479 277.647C310.479 277.647 305.444 284.832 298.251 278.361C298.251 278.361 294.33 280.816 288.91 274.769C282.447 267.459 280.533 256.078 286.039 242.36Z" fill="#EAA58B"/>
<path d="M472.272 116.482H474.053C488.649 116.482 512.548 127.274 509.669 155.228C507.142 178.628 500.35 201.367 489.629 222.32L435.173 195.653L472.272 116.482Z" fill="#A495DA"/>
<path d="M442.067 249.505C446.033 249.502 449.95 250.388 453.529 252.097C457.108 253.805 460.259 256.294 462.75 259.38C460.758 261.239 458.663 262.986 456.476 264.611C446.35 272.016 431.471 273.914 415.69 272.682C416.519 266.273 419.654 260.386 424.509 256.12C429.363 251.855 435.605 249.503 442.067 249.505Z" fill="#CA7358"/>
<path d="M322.072 277.153C318.934 270.878 311.813 254.611 316.958 243.756" stroke="#A15842" stroke-width="4" stroke-linecap="round" stroke-linejoin="round"/>
<path d="M442.789 221.465L425.839 217.99" stroke="#A15842" stroke-width="4" stroke-linecap="round" stroke-linejoin="round"/>
<path d="M309.342 276.871C306.079 270.251 299.02 254.29 304.016 243.756" stroke="#A15842" stroke-width="4" stroke-linecap="round" stroke-linejoin="round"/>
<path d="M296.793 277.655C293.655 271.333 286.683 254.548 291.789 243.756" stroke="#A15842" stroke-width="4" stroke-linecap="round" stroke-linejoin="round"/>
</svg>
