<svg width="83" height="88" viewBox="0 0 83 88" fill="none" xmlns="http://www.w3.org/2000/svg">
<g clip-path="url(#clip0_296_575)">
<path d="M3.76428 18.7856H37.6884C38.0893 18.7856 38.4124 19.1261 38.4124 19.5489V46.7518C38.4124 47.1744 38.0894 47.515 37.6884 47.515H3.76428C3.36341 47.515 3.04028 47.1745 3.04028 46.7518V19.5487C3.04045 19.1261 3.36341 18.7856 3.76428 18.7856Z" fill="#FFE356"/>
<path d="M5.39062 18.7856H10.2686V24.3153L7.87425 21.8851L5.39062 24.3153V18.7856Z" fill="#FCD34E"/>
<path d="M43.1677 29.9048V66.6527H58.4592H75.8332V60.9115H80.7002V51.026C80.7002 51.026 76.9914 47.7269 71.5454 46.3885C71.5454 46.3885 65.1749 34.5422 62.9697 32.5933C62.9697 32.5933 60.074 30.5154 43.1677 29.9048Z" fill="white"/>
<path d="M6.33712 55.2995V58.352H2.75098V66.6525H43.1681V58.2346H35.4054V55.2642H6.32611L6.33712 55.2995Z" fill="#6C7678"/>
<path d="M35.4053 55.2641H41.7201V46.5645H0.668213V55.2641H6.32593H35.4053Z" fill="#83CF8F"/>
<path d="M77.2588 66.6522C77.3145 66.2296 77.3367 65.8069 77.3367 65.3725C77.3367 59.8778 73.1156 55.4165 67.8923 55.4165C62.6802 55.4165 58.4479 59.8662 58.4479 65.3725C58.4479 65.8069 58.4813 66.2296 58.5259 66.6522H77.2476H77.2588ZM25.2591 66.6522C25.3149 66.2296 25.3371 65.8069 25.3371 65.3725C25.3371 59.8778 21.116 55.4165 15.8927 55.4165C10.6805 55.4165 6.45947 59.8662 6.45947 65.3725C6.45947 65.8069 6.49284 66.2296 6.53738 66.6522H25.2591Z" fill="#596366"/>
<path d="M75.0205 65.3724C75.0205 69.5169 71.8352 72.8865 67.8926 72.8865C63.9611 72.8865 60.7646 69.5287 60.7646 65.3724C60.7646 61.228 63.9499 57.8584 67.8926 57.8584C71.8242 57.8586 75.0205 61.2164 75.0205 65.3724Z" fill="#6C7678"/>
<path d="M22.8425 65.3729C22.8425 69.4235 19.7352 72.699 15.8929 72.699C12.0507 72.699 8.94336 69.4233 8.94336 65.3729C8.94336 61.3226 12.0507 58.0469 15.8929 58.0469C19.7352 58.0469 22.8425 61.3224 22.8425 65.3729Z" fill="#6C7678"/>
<path d="M6.44853 67.0512H2.40579C1.77104 67.0512 1.24756 66.4993 1.24756 65.8302V61.6506C1.24756 60.9814 1.77104 60.4296 2.40579 60.4296H6.44869L6.44853 67.0512ZM71.3786 65.3722C71.3786 67.4034 69.8193 69.047 67.8927 69.047C65.9661 69.047 64.4068 67.4032 64.4068 65.3722C64.4068 63.3413 65.9661 61.6975 67.8927 61.6975C69.8193 61.6975 71.3786 63.3411 71.3786 65.3722ZM19.7241 65.3722C19.7241 67.603 18.009 69.411 15.8929 69.411C13.7768 69.411 12.0617 67.603 12.0617 65.3722C12.0617 63.1415 13.7768 61.3335 15.8929 61.3335C18.009 61.3335 19.7241 63.1415 19.7241 65.3722ZM44.6715 64.7031V61.5331V61.404V32.3813C44.6715 32.2287 44.7939 32.0996 44.9387 32.0996H44.9833C45.1281 32.0996 45.2505 32.2287 45.2505 32.3813V60.6761C45.2839 60.6644 45.3284 60.6644 45.3619 60.6644H56.8555C57.2342 60.6644 57.546 60.993 57.546 61.3922V61.5213C57.546 61.9205 57.2342 62.2492 56.8555 62.2492H45.3619C45.3286 62.2492 45.284 62.2492 45.2505 62.2374V64.6912H58.4592V66.64H43.1678V64.6912H44.6713V64.7031H44.6715ZM81.0123 67.2859H75.6108V60.676H81.0123C81.7028 60.676 82.2596 61.263 82.2596 61.9909V65.9709C82.2596 66.6989 81.7028 67.2859 81.0123 67.2859ZM54.9735 50.2974H51.4652C51.2202 50.2974 51.0308 50.086 51.0308 49.8394V49.7573C51.0308 49.499 51.2313 49.2994 51.4652 49.2994H54.9735C55.2185 49.2994 55.4079 49.5108 55.4079 49.7573V49.8394C55.4079 50.0978 55.2073 50.2974 54.9735 50.2974Z" fill="#ECF0F1"/>
<path d="M2.79537 60.4298H2.71747C2.49476 60.4298 2.30542 60.2302 2.30542 59.9954V58.6687C2.30542 58.434 2.49476 58.2344 2.71747 58.2344H2.79537C3.01808 58.2344 3.20742 58.434 3.20742 58.6687V59.9954C3.20742 60.2302 3.01808 60.4298 2.79537 60.4298Z" fill="#FFE45E"/>
<path d="M62.3573 34.8823H64.8185C64.8185 34.8823 70.8438 44.3452 71.5454 46.3882H66.6673C66.411 46.3882 66.1771 46.2355 66.0659 45.989L61.6778 36.0212C61.4439 35.4929 61.8114 34.8941 62.3683 34.8941L62.3573 34.8823ZM64.4065 45.4371L60.475 35.622C60.2969 35.1758 59.8848 34.8941 59.4281 34.8941H52.278C51.7433 34.8941 51.3091 35.352 51.3091 35.9155V45.3784C51.3091 45.942 51.7435 46.3998 52.278 46.3998H63.8049C64.2729 46.3998 64.5958 45.8949 64.4065 45.4371Z" fill="#8597B1"/>
<path d="M80.6894 53.8433C79.8208 53.9372 79.1301 54.7121 79.1301 55.6513V57.6237C79.1301 58.563 79.8206 59.3378 80.6894 59.4317V53.8315V53.8433Z" fill="#FF7069"/>
<path d="M7.78487 40.5882C7.33946 40.1538 6.7269 39.9424 5.92499 39.9424H4.19873V45.214H5.81356C6.64883 45.214 7.29476 44.9792 7.75151 44.4979C8.2081 44.0283 8.44198 43.3472 8.44198 42.4667C8.44198 41.6449 8.21927 41.0226 7.78487 40.5882ZM34.08 39.9424H32.6098L34.2581 43.1946V45.214H35.6169V43.1476L37.2652 39.9307H35.8062L34.9486 41.8913L34.091 39.9307L34.08 39.9424ZM30.104 43.3003L31.1619 45.2257H32.6989L31.2398 42.9246C31.8079 42.5842 32.0863 42.1145 32.0863 41.5041C32.0863 40.4591 31.407 39.9426 30.0482 39.9426H28.4111V45.2141H29.7586V43.2887H30.104V43.3003ZM29.7586 41.0226H30.0259C30.4825 41.0226 30.7164 41.2104 30.7164 41.5744C30.7164 42.0088 30.4825 42.2319 30.0035 42.2319H29.7473V41.0227L29.7586 41.0226ZM27.5313 44.0635H25.9164V43.0655H27.42V41.9149H25.9164V41.0931H27.5313V39.9424H24.5577V45.214H27.5313V44.0517V44.0635ZM21.8178 42.6427C21.7845 42.7836 21.7399 42.9832 21.6954 43.2298C21.6508 43.4881 21.6175 43.6993 21.5951 43.8637C21.5839 43.629 21.506 43.218 21.3612 42.6192L20.6819 39.9423H19.1562L20.7934 45.2138H22.386L24.0232 39.9423H22.5085L21.818 42.6308V42.6427H21.8178ZM18.6215 45.2257V39.9542H17.2628V45.2257H18.6215ZM16.4609 45.2257V44.0751H14.5341V39.9542H13.1865V45.2257H16.4609ZM12.3067 44.0635H10.6919V43.0655H12.1954V41.9149H10.6919V41.0931H12.3067V39.9424H9.33297V45.214H12.3065V44.0517L12.3067 44.0635ZM6.74925 43.6759C6.55991 43.9225 6.25913 44.0515 5.84708 44.0515H5.54631V41.0929H5.93617C6.30367 41.0929 6.5821 41.2104 6.76026 41.4452C6.93843 41.6799 7.03868 42.0322 7.03868 42.5253C7.03868 43.0419 6.93859 43.4294 6.74925 43.6759Z" fill="white"/>
<path d="M20.7263 23.8579C21.595 23.8579 22.4414 23.94 23.2657 24.1045L23.3214 24.1162C23.4105 24.1398 23.4996 24.1514 23.5886 24.175H23.611L23.6667 24.1868C23.7446 24.2103 23.8227 24.2219 23.9006 24.2455L23.9563 24.2573C24.0566 24.2808 24.1457 24.3042 24.2459 24.3394L24.3016 24.3512C24.3907 24.3747 24.491 24.4099 24.5801 24.4333L24.6358 24.4569C24.7137 24.4804 24.7806 24.5038 24.8585 24.5274L24.9142 24.551L24.9699 24.5745C25.0478 24.5981 25.1147 24.6215 25.1926 24.6566L25.2483 24.6802H25.2595C25.3486 24.7154 25.4377 24.7507 25.5157 24.7741L25.5715 24.7977C25.6494 24.8329 25.7385 24.8682 25.8165 24.9034L25.8389 24.9151L25.8946 24.9387C25.9615 24.9739 26.0394 24.9974 26.1061 25.0326L26.1618 25.0562L26.2176 25.0797C26.2845 25.1149 26.3512 25.1385 26.4181 25.1737L26.4293 25.1854L26.485 25.209C26.5741 25.256 26.652 25.2911 26.7412 25.3381L26.7969 25.3616C31.2407 27.7097 34.2923 32.5468 34.2923 38.1472V38.2293H7.18335V38.1472C7.18335 32.0539 10.803 26.8527 15.8927 24.7982L15.9596 24.7746C16.0265 24.7511 16.1044 24.7159 16.1711 24.6925L16.249 24.6689H16.2602C16.7614 24.4811 17.2848 24.3285 17.8083 24.211L17.8862 24.1874C17.9641 24.1757 18.0422 24.1523 18.1201 24.1405L18.198 24.1287C18.3985 24.0935 18.6101 24.0466 18.8106 24.023C19.4343 23.9291 20.0802 23.8822 20.7262 23.8822V23.8579H20.7263ZM18.8441 27.6383C18.4432 28.7654 18.1091 29.963 17.8529 31.2075C17.14 31.137 16.4496 31.0431 15.7591 30.9258C16.5944 29.6459 17.6413 28.5188 18.8441 27.6383ZM14.2779 30.6321C13.309 30.4091 12.3735 30.139 11.4713 29.822C13.309 27.556 15.8817 25.971 18.8107 25.4897C18.9889 25.5249 19.1671 25.5484 19.3564 25.5954C17.2848 26.7812 15.5364 28.5305 14.2889 30.6439L14.2779 30.6321ZM10.4912 31.1957C11.4491 31.5714 12.4402 31.9118 13.4872 32.182C12.8079 33.7434 12.3846 35.4577 12.2732 37.2657H8.57563C8.72027 35.0349 9.39973 32.9686 10.4912 31.1957ZM14.8793 32.4989C15.7369 32.6749 16.6279 32.8159 17.5299 32.9098C17.3072 34.307 17.1736 35.7628 17.14 37.2539H13.6763C13.7878 35.5516 14.211 33.943 14.8903 32.4872L14.8793 32.4989ZM24.6355 37.2657C24.6021 35.7512 24.4573 34.2836 24.2346 32.8747C25.4152 32.7338 26.5734 32.5106 27.6759 32.2289C28.4333 33.7552 28.9011 35.4575 29.0123 37.2657H24.6243H24.6355ZM29.0569 31.8415C29.7028 31.6419 30.3265 31.4189 30.9279 31.1724C32.0194 32.9452 32.7099 35.0233 32.8547 37.2657H30.4156C30.3043 35.3284 29.8254 33.4968 29.0569 31.8415ZM29.959 29.7986C29.4022 29.9982 28.8342 30.1742 28.2439 30.3386C27.0412 28.3898 25.3928 26.7812 23.466 25.6423C26.0387 26.2647 28.2997 27.7558 29.959 29.7986ZM26.7961 30.6909C25.8606 30.8905 24.9029 31.0549 23.9226 31.1604C23.5997 29.6341 23.1653 28.19 22.6418 26.8399C24.2901 27.7792 25.7044 29.0941 26.7848 30.6909H26.7961ZM19.4789 31.313C19.8797 31.3248 20.2919 31.3366 20.6928 31.3366C21.2385 31.3366 21.7731 31.3248 22.3076 31.2897C21.9513 29.6107 21.4835 28.0257 20.8932 26.5582C20.303 28.0257 19.824 29.6225 19.4787 31.3014L19.4789 31.313ZM22.6196 33.0155C21.9848 33.0625 21.3499 33.0743 20.6928 33.0743C20.1805 33.0743 19.6682 33.0625 19.1671 33.0391C18.9555 34.4009 18.8329 35.8099 18.7996 37.2539H22.9983C22.9649 35.7981 22.8313 34.3774 22.6308 33.0155H22.6196Z" fill="white"/>
<path d="M29.469 18.7856H34.347V24.3153L31.9414 21.8851L29.469 24.3153V18.7856Z" fill="#FCD34E"/>
</g>
<defs>
<clipPath id="clip0_296_575">
<rect width="82.9278" height="87.4203" fill="white" transform="translate(0 0.23584)"/>
</clipPath>
</defs>
</svg>
